<svg width="24" height="24" viewBox="0 0 24 24" fill="none" xmlns="http://www.w3.org/2000/svg">
<path fill-rule="evenodd" clip-rule="evenodd" d="M2.10938 1H21.8906C23.0537 1 24 1.94627 24 3.10938V9.90625H0V3.10938C0 1.94627 0.946266 1 2.10938 1ZM20.0156 4.28125C20.0156 4.66956 20.3304 4.98438 20.7188 4.98438C21.1071 4.98438 21.4219 4.66956 21.4219 4.28125C21.4219 3.89294 21.1071 3.57812 20.7188 3.57812C20.3304 3.57812 20.0156 3.89294 20.0156 4.28125Z" fill="#F29971"/>
<path d="M0 11.3125V11.5469C0 12.71 0.946266 13.6562 2.10938 13.6562H21.8906C23.0537 13.6562 24 12.71 24 11.5469V11.3125H0Z" fill="#F29971"/>
<path d="M11.9531 18.5781C11.9531 18.0308 12.1782 17.7846 12.5189 17.412C12.9132 16.9807 13.4531 16.3902 13.4531 15.2969C13.4531 14.9086 13.1383 14.5938 12.75 14.5938C12.3617 14.5938 12.0469 14.9086 12.0469 15.2969C12.0469 15.8442 11.8218 16.0904 11.4811 16.463C11.0868 16.8943 10.5469 17.4848 10.5469 18.5781C10.5469 19.6714 11.0868 20.262 11.4811 20.6932C11.8218 21.0658 12.0469 21.3121 12.0469 21.8594C12.0469 22.2477 12.3617 22.5625 12.75 22.5625C13.1383 22.5625 13.4531 22.2477 13.4531 21.8594C13.4531 20.7661 12.9132 20.1755 12.5189 19.7443C12.1782 19.3717 11.9531 19.1254 11.9531 18.5781Z" fill="#F29971"/>
<path d="M16.6406 18.5781C16.6406 18.0308 16.8657 17.7846 17.2064 17.412C17.6007 16.9807 18.1406 16.3902 18.1406 15.2969C18.1406 14.9086 17.8258 14.5938 17.4375 14.5938C17.0492 14.5938 16.7344 14.9086 16.7344 15.2969C16.7344 15.8442 16.5093 16.0904 16.1686 16.463C15.7743 16.8943 15.2344 17.4848 15.2344 18.5781C15.2344 19.6714 15.7743 20.262 16.1686 20.6932C16.5093 21.0658 16.7344 21.3121 16.7344 21.8594C16.7344 22.2477 17.0492 22.5625 17.4375 22.5625C17.8258 22.5625 18.1406 22.2477 18.1406 21.8594C18.1406 20.7661 17.6007 20.1755 17.2064 19.7443C16.8657 19.3717 16.6406 19.1254 16.6406 18.5781Z" fill="#F29971"/>
<path d="M7.26562 18.5781C7.26562 18.0308 7.49072 17.7846 7.83141 17.412C8.22567 16.9807 8.76562 16.3902 8.76562 15.2969C8.76562 14.9086 8.45081 14.5938 8.0625 14.5938C7.67419 14.5938 7.35938 14.9086 7.35938 15.2969C7.35938 15.8442 7.13428 16.0904 6.79359 16.463C6.39933 16.8943 5.85938 17.4848 5.85938 18.5781C5.85938 19.6714 6.39933 20.262 6.79359 20.6932C7.13428 21.0658 7.35938 21.3121 7.35938 21.8594C7.35938 22.2477 7.67419 22.5625 8.0625 22.5625C8.45081 22.5625 8.76562 22.2477 8.76562 21.8594C8.76562 20.7661 8.22567 20.1755 7.83141 19.7443C7.49072 19.3717 7.26562 19.1254 7.26562 18.5781Z" fill="#F29971"/>
</svg>
