<svg width="24" height="24" viewBox="0 0 24 24" fill="none" xmlns="http://www.w3.org/2000/svg">
<path fill-rule="evenodd" clip-rule="evenodd" d="M12 5.21436C12.2377 5.21436 12.472 5.22662 12.7031 5.25043C16.1157 5.60345 18.7859 8.49542 18.7859 11.9999C18.7859 15.5043 16.1157 18.3963 12.7031 18.7491C12.472 18.7731 12.2377 18.7852 12 18.7852C8.25824 18.7852 5.21448 15.7415 5.21448 11.9999C5.21448 8.25812 8.25824 5.21436 12 5.21436ZM12.7031 6.66638V17.3332C15.3386 16.9879 17.3798 14.7281 17.3798 11.9999C17.3798 9.27161 15.3386 7.0119 12.7031 6.66638Z" fill="#6B88F3"/>
<path d="M12 4.19733C12.3882 4.19733 12.7031 3.88239 12.7031 3.4942V0.703125C12.7031 0.314758 12.3882 0 12 0C11.6116 0 11.2969 0.314758 11.2969 0.703125V3.4942C11.2969 3.88239 11.6116 4.19733 12 4.19733Z" fill="#6B88F3"/>
<path d="M12 19.8027C11.6116 19.8027 11.2969 20.1177 11.2969 20.5059V23.2969C11.2969 23.6853 11.6116 24.0001 12 24.0001C12.3882 24.0001 12.7031 23.6853 12.7031 23.2969V20.5059C12.7031 20.1175 12.3884 19.8027 12 19.8027V19.8027Z" fill="#6B88F3"/>
<path d="M4.19733 12C4.19733 11.6116 3.88239 11.2969 3.4942 11.2969H0.703125C0.314758 11.2969 0 11.6116 0 12C0 12.3882 0.314758 12.7031 0.703125 12.7031H3.4942C3.88239 12.7031 4.19733 12.3884 4.19733 12Z" fill="#6B88F3"/>
<path d="M23.2969 11.2969H20.5058C20.1174 11.2969 19.8027 11.6116 19.8027 12C19.8027 12.3882 20.1174 12.7031 20.5058 12.7031H23.2969C23.6852 12.7031 24 12.3882 24 12C24 11.6116 23.6852 11.2969 23.2969 11.2969Z" fill="#6B88F3"/>
<path d="M5.31958 6.31372C5.45691 6.45105 5.6369 6.51971 5.81671 6.51971C5.9967 6.51971 6.17651 6.45105 6.31384 6.31372C6.58832 6.03906 6.58832 5.59393 6.31384 5.31946L4.28485 3.29047C4.01038 3.01581 3.56506 3.01581 3.29059 3.29047C3.01593 3.56494 3.01593 4.01007 3.29059 4.28473L5.31958 6.31372Z" fill="#6B88F3"/>
<path d="M18.6804 17.686C18.4059 17.4113 17.9608 17.4113 17.6862 17.686C17.4117 17.9604 17.4117 18.4056 17.6862 18.6802L19.7151 20.7092C19.8525 20.8466 20.0325 20.9152 20.2123 20.9152C20.3923 20.9152 20.5721 20.8466 20.7094 20.7092C20.9839 20.4346 20.9839 19.9894 20.7094 19.715L18.6804 17.686Z" fill="#6B88F3"/>
<path d="M5.31958 17.686L3.29059 19.715C3.01611 19.9894 3.01611 20.4346 3.29059 20.7092C3.42792 20.8466 3.60773 20.9152 3.78772 20.9152C3.96753 20.9152 4.14752 20.8466 4.28485 20.7092L6.31384 18.6802C6.58832 18.4056 6.58832 17.9604 6.31384 17.686C6.03937 17.4113 5.59406 17.4113 5.31958 17.686Z" fill="#6B88F3"/>
<path d="M18.1833 6.51971C18.3633 6.51971 18.5431 6.45105 18.6804 6.31372L20.7094 4.28473C20.9839 4.01007 20.9839 3.56494 20.7094 3.29047C20.4349 3.01581 19.9896 3.01581 19.7151 3.29047L17.6862 5.31946C17.4115 5.59393 17.4115 6.03906 17.6862 6.31372C17.8235 6.45105 18.0033 6.51971 18.1833 6.51971Z" fill="#6B88F3"/>
</svg>
