<svg width="24" height="24" viewBox="0 0 24 24" fill="none" xmlns="http://www.w3.org/2000/svg">
<path fill-rule="evenodd" clip-rule="evenodd" d="M5 21V10.5H20V21C20 21.828 19.328 22.5 18.5 22.5H17V23.25C17 23.664 16.664 24 16.25 24C15.836 24 15.5 23.664 15.5 23.25V22.5H9.5V23.25C9.5 23.664 9.164 24 8.75 24C8.336 24 8 23.664 8 23.25V22.5H6.5C5.6735 22.5 5 21.828 5 21ZM16.25 16.5C16.664 16.5 17 16.164 17 15.75V12.75C17 12.336 16.664 12 16.25 12C15.836 12 15.5 12.336 15.5 12.75V15.75C15.5 16.164 15.836 16.5 16.25 16.5Z" fill="#6B88F3"/>
<path fill-rule="evenodd" clip-rule="evenodd" d="M6.5 0H18.5C19.328 0 20 0.6735 20 1.5V9H5V1.5C5 0.6735 5.6735 0 6.5 0ZM16.25 7.5C16.664 7.5 17 7.164 17 6.75V3.75C17 3.336 16.664 3 16.25 3C15.836 3 15.5 3.336 15.5 3.75V6.75C15.5 7.164 15.836 7.5 16.25 7.5Z" fill="#6B88F3"/>
</svg>
