<svg width="20" height="20" viewBox="0 0 20 20" fill="none" xmlns="http://www.w3.org/2000/svg">
<path d="M11.976 5.6626H8.02395C7.0018 5.6626 6.17023 6.49416 6.17023 7.51631V8.58346H13.8298V7.51631C13.8298 6.49424 12.9982 5.6626 11.976 5.6626Z" fill="#6B88F3"/>
<path d="M16.4427 0.0361328H3.5573C2.27355 0.0361328 1.22918 1.08055 1.22918 2.3643V8.67758C1.48219 8.61672 1.74578 8.58359 2.01719 8.58359H4.81738V7.51645C4.81738 5.74832 6.25586 4.30984 8.02398 4.30984H11.9761C13.7442 4.30984 15.1827 5.74832 15.1827 7.51645V8.58359H17.9829C18.2543 8.58359 18.5179 8.61668 18.7709 8.67758V2.3643C18.7708 1.08055 17.7264 0.0361328 16.4427 0.0361328Z" fill="#6B88F3"/>
<path d="M17.9828 9.93652H14.5062H5.49379H2.01719C0.904883 9.93648 0 10.8414 0 11.9537V15.9862H20V11.9537C20 10.8414 19.0951 9.93652 17.9828 9.93652Z" fill="#6B88F3"/>
<path d="M1.22918 17.3389V18.9749C1.22918 19.3484 1.53203 19.6513 1.90562 19.6513C2.27922 19.6513 2.58207 19.3485 2.58207 18.9749V17.3389H1.22918Z" fill="#6B88F3"/>
<path d="M17.4179 17.3389V18.9749C17.4179 19.3484 17.7208 19.6513 18.0944 19.6513C18.468 19.6513 18.7708 19.3485 18.7708 18.9749V17.3389H17.4179Z" fill="#6B88F3"/>
</svg>
