<svg width="20" height="20" viewBox="0 0 20 20" fill="none" xmlns="http://www.w3.org/2000/svg">
<path d="M8.60421 14.8045C7.83636 15.5724 7.83636 16.8181 8.60421 17.5861C9.37247 18.3539 10.618 18.3539 11.3862 17.5861C12.154 16.8181 12.154 15.5724 11.3862 14.8045C10.618 14.0365 9.37247 14.0365 8.60421 14.8045Z" fill="#574EAE"/>
<path d="M9.99523 10.127C8.3747 10.127 6.85016 10.7582 5.7049 11.9046C5.25498 12.3543 5.25498 13.0832 5.7049 13.5326C6.15446 13.9823 6.88304 13.9823 7.33296 13.5326C8.04332 12.8212 8.98911 12.4296 9.99523 12.4296C11.0013 12.4296 11.9472 12.8212 12.6575 13.5326C12.8827 13.7575 13.178 13.8699 13.4717 13.8699C13.767 13.8699 14.0608 13.7575 14.2856 13.5326C14.7355 13.0832 14.7355 12.3543 14.2856 11.9046C13.1403 10.7582 11.6158 10.127 9.99523 10.127Z" fill="#574EAE"/>
<path d="M9.99522 6.33594C7.3615 6.33594 4.88555 7.36165 3.0236 9.22383C2.57405 9.67355 2.57405 10.4025 3.0236 10.8519C3.47348 11.3016 4.20247 11.3016 4.65162 10.8519C6.07866 9.42444 7.97668 8.63845 9.99518 8.63845C12.0129 8.63845 13.9109 9.42444 15.338 10.8519C15.5627 11.0768 15.8581 11.1892 16.1518 11.1892C16.4471 11.1892 16.7413 11.0768 16.966 10.8519C17.4156 10.4025 17.4156 9.67355 16.966 9.22383C15.1041 7.36165 12.6289 6.33594 9.99522 6.33594Z" fill="#574EAE"/>
<path d="M19.6533 6.53715C17.0739 3.95686 13.6442 2.53613 9.99522 2.53613C6.34628 2.53613 2.91656 3.95686 0.337166 6.53715C-0.112389 6.9869 -0.112389 7.71589 0.337166 8.16524C0.562308 8.3901 0.856842 8.50245 1.15138 8.50245C1.44591 8.50245 1.74126 8.3901 1.96522 8.16524C4.10976 6.01994 6.96194 4.83868 9.99522 4.83868C13.0285 4.83868 15.8799 6.01994 18.0245 8.16524C18.474 8.61496 19.2025 8.61455 19.6525 8.16565C20.102 7.71589 20.102 6.9869 19.6533 6.53715Z" fill="#574EAE"/>
</svg>
