<svg width="20" height="20" viewBox="0 0 20 20" fill="none" xmlns="http://www.w3.org/2000/svg">
<path fill-rule="evenodd" clip-rule="evenodd" d="M0.854106 1.39942V4.28957H18.4043V1.39942C18.4043 0.627826 17.7766 0 17.005 0H2.25353C1.48184 0 0.854106 0.627826 0.854106 1.39942ZM18.4043 18.5111V5.73884H0.854203V18.5111C0.854203 19.2827 1.48193 19.9105 2.25353 19.9105H17.005C17.7766 19.9105 18.4043 19.2827 18.4043 18.5111ZM12.1139 12.9123H11.235C10.8347 12.9123 10.5103 12.5878 10.5103 12.1877V11.3251C10.5103 10.9248 10.8347 10.6005 11.235 10.6005H12.016C11.563 9.73459 10.6605 9.16483 9.62928 9.16483C8.14309 9.16483 6.93382 10.3741 6.93382 11.8603C6.93382 13.3465 8.14299 14.5557 9.62928 14.5557C10.7448 14.5557 11.7049 13.8883 12.1139 12.9123ZM14.9024 11.3787C14.9024 10.9785 14.5781 10.6541 14.1778 10.6541H13.5956C13.0757 8.92174 11.489 7.71546 9.62928 7.71546C7.34386 7.71546 5.48454 9.57478 5.48454 11.8602C5.48454 14.1456 7.34386 16.0049 9.62928 16.0049C11.571 16.0049 13.206 14.6889 13.653 12.8586H14.1778C14.5781 12.8586 14.9024 12.5342 14.9024 12.1339V11.3787ZM6.92164 2.29275C6.92164 2.69304 7.24599 3.01739 7.64628 3.01739H8.71063C9.11092 3.01739 9.43527 2.69304 9.43527 2.29275C9.43527 1.89246 9.11092 1.56812 8.71063 1.56812H7.64628C7.24609 1.56812 6.92164 1.89256 6.92164 2.29275ZM3.33865 3.32812C2.76773 3.32812 2.30328 2.86367 2.30328 2.29275C2.30328 1.72184 2.76773 1.25749 3.33865 1.25749C3.90956 1.25749 4.37401 1.72174 4.37401 2.29275C4.37401 2.86377 3.90956 3.32812 3.33865 3.32812Z" fill="#F76984"/>
</svg>
