<svg width="24" height="24" viewBox="0 0 24 24" fill="none" xmlns="http://www.w3.org/2000/svg">
<path d="M17.3731 20.3906H17.3594H5.40625C5.40625 20.6571 5.55662 20.9001 5.79489 21.0196C6.57405 21.4092 7.38944 21.698 8.21875 21.9243V23.2969C8.21875 23.6855 8.53323 24 8.92188 24C9.31052 24 9.625 23.6855 9.625 23.2969V22.2262C10.3241 22.3378 11.0277 22.4142 11.7344 22.4142C12.441 22.4142 13.1447 22.3378 13.8438 22.2262V23.2969C13.8438 23.6855 14.1582 24 14.5469 24C14.9355 24 15.25 23.6855 15.25 23.2969V21.9243C16.0793 21.698 16.8947 21.4092 17.6739 21.0196C17.9121 20.9001 18.0625 20.6571 18.0625 20.3906H17.3731Z" fill="#F29971"/>
<path d="M17.3594 0H6.10938C4.94622 0 4 0.946219 4 2.10938V5.625H8.28991C8.61658 4.0223 10.0367 2.8125 11.7344 2.8125C13.432 2.8125 14.8522 4.0223 15.1788 5.625H19.4688V2.10938C19.4688 0.946219 18.5225 0 17.3594 0Z" fill="#F29971"/>
<path fill-rule="evenodd" clip-rule="evenodd" d="M9.625 6.32812C9.625 5.16497 10.5712 4.21875 11.7344 4.21875C12.8975 4.21875 13.8438 5.16497 13.8438 6.32812C13.8438 7.49128 12.8975 8.4375 11.7344 8.4375C10.5712 8.4375 9.625 7.49128 9.625 6.32812ZM11.7344 7.73438C12.123 7.73438 12.4375 7.41989 12.4375 7.03125V5.625C12.4375 5.23636 12.123 4.92188 11.7344 4.92188C11.3457 4.92188 11.0312 5.23636 11.0312 5.625V7.03125C11.0312 7.41989 11.3457 7.73438 11.7344 7.73438Z" fill="#F29971"/>
<path fill-rule="evenodd" clip-rule="evenodd" d="M9.625 14.7656C9.625 13.6025 10.5712 12.6562 11.7344 12.6562C12.8975 12.6562 13.8438 13.6025 13.8438 14.7656V18.9844H9.625V14.7656ZM11.0312 14.7656C11.0312 15.1539 11.3461 15.4688 11.7344 15.4688C12.1227 15.4688 12.4375 15.1539 12.4375 14.7656C12.4375 14.3772 12.1227 14.0625 11.7344 14.0625C11.3461 14.0625 11.0312 14.3772 11.0312 14.7656Z" fill="#F29971"/>
<path d="M15.1788 7.03125C14.8522 8.63395 13.432 9.84375 11.7344 9.84375C10.0367 9.84375 8.61658 8.63395 8.28991 7.03125H4V16.875C4 18.0382 4.94622 18.9844 6.10938 18.9844H8.21875V14.7656C8.21875 12.8272 9.79595 11.25 11.7344 11.25C13.6728 11.25 15.25 12.8272 15.25 14.7656V18.9844H17.3594C18.5225 18.9844 19.4688 18.0382 19.4688 16.875V7.03125H15.1788Z" fill="#F29971"/>
</svg>
