<svg width="24" height="24" viewBox="0 0 24 24" fill="none" xmlns="http://www.w3.org/2000/svg">
<path d="M11.625 16.1738C10.3304 16.1738 9.27717 17.227 9.27717 18.5217V21.6521C9.27717 22.9467 10.3304 23.9999 11.625 23.9999C12.9196 23.9999 13.9728 22.9467 13.9728 21.6521V18.5217C13.9728 17.227 12.9196 16.1738 11.625 16.1738Z" fill="#F29971"/>
<path fill-rule="evenodd" clip-rule="evenodd" d="M15.4592 3.13045H19.4511C19.8832 3.13045 20.2337 3.4807 20.2337 3.91303C20.2337 4.34536 19.8832 4.69566 19.4511 4.69566H15.4592C15.2921 5.51545 14.8652 6.23967 14.2722 6.78647C16.8472 7.83933 18.6685 10.3674 18.6685 13.3043V18.9548C18.6685 20.0105 17.8094 20.8695 16.7537 20.8695H15.538V18.5217C15.538 16.364 13.7827 14.6087 11.625 14.6087C9.46725 14.6087 7.71197 16.364 7.71197 18.5217V20.8696H6.58289C5.52722 20.8696 4.6687 20.0105 4.6687 18.9548V13.3044C4.6687 10.3893 6.46176 7.87519 9.00178 6.80827C8.39625 6.25908 7.96017 5.52647 7.79086 4.6957H3.79894C3.36689 4.6957 3.01631 4.34541 3.01631 3.91308C3.01631 3.48075 3.36689 3.13045 3.79894 3.13045H7.79086C8.15437 1.34644 9.73519 0 11.625 0C13.5148 0 15.0956 1.34644 15.4592 3.13045ZM9.27717 3.91303C9.27717 5.20767 10.3304 6.26086 11.625 6.26086C12.9196 6.26086 13.9728 5.20767 13.9728 3.91303C13.9728 2.61839 12.9196 1.5652 11.625 1.5652C10.3304 1.5652 9.27717 2.61839 9.27717 3.91303Z" fill="#F29971"/>
</svg>
