<svg width="24" height="24" viewBox="0 0 24 24" fill="none" xmlns="http://www.w3.org/2000/svg">
<path d="M10.8438 0H2.40625C1.62958 0 1 0.629578 1 1.40625V2.10938C1 2.49769 1.31481 2.8125 1.70312 2.8125H11.5469C11.9352 2.8125 12.25 2.49769 12.25 2.10938V1.40625C12.25 0.629578 11.6204 0 10.8438 0Z" fill="#F76984"/>
<path d="M2.40625 4.21875V12C2.40625 13.165 3.35064 14.1094 4.51562 14.1094H9.4375V4.21875H2.40625Z" fill="#F76984"/>
<path d="M20.1406 12H11V14.8125H21.5469C21.9352 14.8125 22.25 14.4977 22.25 14.1094C22.25 12.9444 21.3056 12 20.1406 12Z" fill="#F76984"/>
<path d="M20.2988 15.5156H3.8125V16.2188C3.8125 17.8344 4.90769 19.1988 6.39428 19.6087L5.25513 23.0744C5.18303 23.2886 5.21941 23.5248 5.35127 23.7082C5.48378 23.8915 5.69598 24 5.92188 24H14.3594C14.5853 24 14.7975 23.8915 14.93 23.7082C15.0618 23.5248 15.0982 23.2886 15.0261 23.0744L13.9288 19.7344H14.3594C17.1057 19.7344 19.4252 17.9656 20.2988 15.5156Z" fill="#F76984"/>
</svg>
