<svg width="24" height="24" viewBox="0 0 24 24" fill="none" xmlns="http://www.w3.org/2000/svg">
<path d="M23.9985 19.359C23.9984 19.0864 23.8383 18.8271 23.5715 18.7136L19.817 17.1163L16.2936 21.1555C16.0387 21.4468 15.5961 21.4763 15.3048 21.2214C15.2478 21.1716 15.2009 21.1144 15.1641 21.0526L13.116 18.0719C12.7877 18.118 12.4523 18.1419 12.1116 18.1419C11.7019 18.1419 11.2991 18.1069 10.9062 18.0397L8.83598 21.0526C8.79919 21.1144 8.75227 21.1715 8.69522 21.2214C8.40399 21.4763 7.9613 21.4468 7.70648 21.1555L4.11061 17.0332L0.411984 18.7218C0.154594 18.8394 0.00375 19.0537 0.0035625 19.3193L0 23.2964C0 23.6847 0.314813 23.9995 0.703125 23.9995C8.2343 23.9996 15.766 23.9995 23.2969 23.9995C23.6852 23.9995 24 23.6847 24 23.2964L23.9985 19.359Z" fill="#574EAE"/>
<path d="M6.80329 15.8037L5.44054 16.4259L8.16881 19.5536L9.48267 17.6414C9.44081 17.6249 9.39914 17.608 9.35761 17.5908C8.47167 17.2225 7.67676 16.6864 7.01461 16.0242C6.94265 15.9522 6.8722 15.8787 6.80329 15.8037Z" fill="#574EAE"/>
<path d="M18.4606 16.5391L17.2209 16.0117L17.2086 16.0241C16.4681 16.7647 15.5677 17.3459 14.565 17.7107L15.8312 19.5535L18.4606 16.5391Z" fill="#574EAE"/>
<path fill-rule="evenodd" clip-rule="evenodd" d="M18.5087 4.96815H5.71444L4.87594 3.37726C4.69542 3.03442 4.827 2.6102 5.16979 2.42968C5.20036 2.41356 5.23158 2.39996 5.26326 2.38876L5.26317 2.38848L11.8781 0.0406503C12.0354 -0.0148497 12.1992 -0.0109122 12.345 0.0406503L18.96 2.38848C19.3256 2.51738 19.5174 2.91831 19.3885 3.28388C19.374 3.3249 19.3561 3.36376 19.3352 3.40018L18.5087 4.96815ZM12.8149 2.48429C12.8149 2.09701 12.4991 1.78117 12.1118 1.78117C11.7245 1.78117 11.4087 2.09701 11.4087 2.48429C11.4087 2.87157 11.7245 3.18742 12.1118 3.18742C12.4991 3.18742 12.8149 2.87157 12.8149 2.48429Z" fill="#574EAE"/>
<path d="M18.896 7.18432L18.3133 6.37451H5.90409L5.32186 7.20781C5.0865 7.54592 5.19079 8.01082 5.54695 8.21571C7.31109 9.23079 10.2277 9.65576 12.3329 9.65576C14.5043 9.65576 16.7762 9.30659 18.6752 8.19907C19.0312 7.99245 19.1371 7.51943 18.896 7.18432Z" fill="#574EAE"/>
<path d="M16.2143 15.0297C17.2668 13.9773 17.92 12.525 17.92 10.927V10.1165C17.2626 10.3749 16.5826 10.5711 15.8918 10.7159C14.7017 10.9654 13.497 11.0618 12.3329 11.0618C11.1083 11.0618 9.6203 10.926 8.20495 10.6257C7.54987 10.4867 6.90581 10.3099 6.30314 10.0918V10.9269C6.30314 12.525 6.95639 13.9773 8.00883 15.0297C9.06126 16.0821 10.5135 16.7354 12.1116 16.7354C13.7097 16.7354 15.162 16.0822 16.2143 15.0297Z" fill="#574EAE"/>
</svg>
