<svg width="20" height="20" viewBox="0 0 20 20" fill="none" xmlns="http://www.w3.org/2000/svg">
<path d="M12.8571 17.3807H10.7143V15.9521H9.28572V17.3807H7.14286C6.7484 17.3807 6.42857 17.7005 6.42857 18.095C6.42857 18.4895 6.7484 18.8093 7.14286 18.8093H12.8571C13.2516 18.8093 13.5714 18.4895 13.5714 18.095C13.5714 17.7005 13.2516 17.3807 12.8571 17.3807Z" fill="#574EAE"/>
<path d="M0.714286 1.6665H19.2857C19.6802 1.6665 20 1.98633 20 2.38079V13.8094C20 14.2038 19.6802 14.5236 19.2857 14.5236H0.714286C0.319824 14.5236 0 14.2038 0 13.8094V2.38079C0 1.98633 0.319824 1.6665 0.714286 1.6665Z" fill="#574EAE"/>
</svg>
