<svg width="20" height="20" viewBox="0 0 20 20" fill="none" xmlns="http://www.w3.org/2000/svg">
<path fill-rule="evenodd" clip-rule="evenodd" d="M8.81928 0.6868C9.36546 -0.212799 9.94377 -0.244927 10.49 0.6868C10.5562 0.785304 10.6233 0.885087 10.6913 0.986066C13.1937 4.70561 16.7871 10.0467 16.7871 12.7992C16.7871 14.7591 15.9839 16.5583 14.6988 17.8434C13.4137 19.1286 11.6145 19.9318 9.65462 19.9318C7.69478 19.9318 5.89558 19.1286 4.61044 17.8434C3.3253 16.5583 2.52209 14.7591 2.52209 12.7992C2.52209 10.0499 6.18992 4.59632 8.69496 0.871651C8.73673 0.809546 8.77818 0.747922 8.81928 0.6868ZM12.6426 18.0683C13.5422 17.5543 14.2811 16.8153 14.7952 15.98C15.3092 15.1125 15.6305 14.1486 15.6948 13.1205C15.7269 12.6386 15.3735 12.2531 14.8916 12.2209C14.4096 12.1888 14.0241 12.5422 13.992 13.0241C13.9598 13.7631 13.7349 14.4699 13.3494 15.0804C12.9639 15.6908 12.4498 16.2049 11.8072 16.5583C11.3896 16.7832 11.2289 17.2972 11.4859 17.747C11.7108 18.1647 12.2249 18.2932 12.6426 18.0683Z" fill="#F76984"/>
</svg>
