<svg width="120" height="120" viewBox="0 0 120 120" fill="none" xmlns="http://www.w3.org/2000/svg">
<g clip-path="url(#clip0_49_421)">
<path d="M51.0382 45.4361V55.3104C52.1011 54.5647 53.1554 53.8361 54.1582 53.219V47.4076H63.1154V57.3847H65.1553C66.6896 57.3847 68.2154 56.8533 69.4325 55.8933C70.3239 55.1904 71.3182 54.6504 72.3982 54.2819V45.4704L61.5553 37.2504L51.0382 45.4361ZM66.0039 47.4076H70.4611V51.8647H66.0039V47.4076Z" fill="black"/>
<path d="M70.9582 33.359H67.4353V35.6562L70.9582 38.3219V33.359ZM75.021 42.6933L61.5467 32.4847L55.8039 36.9505L48.4239 42.6933V46.1647L50.0096 44.9305L51.0382 44.1333L61.5467 35.9562L72.3982 44.1847L73.4267 44.9647L75.021 46.1647V42.6933ZM53.1982 71.3133L53.3096 70.8419C54.0553 67.679 56.8496 65.4762 60.0982 65.4762H61.7696C65.9096 65.4762 69.7667 63.2476 71.841 59.6647L73.7524 56.3733C73.941 56.0476 73.761 55.7905 73.701 55.7133C73.641 55.6362 73.4182 55.4047 73.0667 55.5162C72.0639 55.8333 71.1296 56.3219 70.2982 56.9733C68.841 58.1219 67.0153 58.7562 65.1724 58.7562H57.7667C57.1239 58.7562 56.5582 58.3705 56.3267 57.7619C56.0953 57.1619 56.2582 56.4933 56.7382 56.0647L57.9467 54.9847C58.4696 54.5133 58.9496 53.5705 58.4867 53.0133C58.4867 53.0047 58.0496 52.6533 55.8896 53.8019C54.4153 54.5905 52.821 55.7219 51.7667 56.4676C51.4924 56.6562 51.261 56.8276 51.081 56.9476C49.6153 57.9419 48.5353 59.4333 48.0296 61.1305L44.9781 71.4676H53.181C53.181 71.4162 53.181 71.3647 53.1982 71.3133Z" fill="black"/>
<path d="M44.7321 81.2531C44.251 81.2531 43.7807 80.8308 43.3213 79.9863C42.9464 79.2914 42.6064 78.4371 42.3013 77.4234C41.9961 76.4097 41.695 75.2531 41.3978 73.9537L42.9184 73.7531C43.075 74.5028 43.247 75.224 43.4344 75.9166C43.6218 76.608 43.815 77.232 44.0138 77.7886C44.2127 78.3463 44.4047 78.8011 44.5898 79.1531C44.6344 79.2434 44.6778 79.3177 44.7201 79.376C44.7624 79.4354 44.7893 79.4651 44.8007 79.4651C44.8224 79.4651 44.8515 79.44 44.8881 79.3897C44.9247 79.3394 44.9767 79.2497 45.0441 79.1206C45.2338 78.7788 45.4395 78.3337 45.6613 77.7851C45.8818 77.2366 46.107 76.6148 46.3367 75.92C46.5664 75.2251 46.7824 74.4943 46.9847 73.7274L48.4795 74.0051C48.227 74.8954 47.9693 75.72 47.7064 76.4788C47.4435 77.2377 47.1858 77.9126 46.9333 78.5034C46.6818 79.0943 46.4493 79.5886 46.2355 79.9863C45.783 80.8308 45.2818 81.2531 44.7321 81.2531ZM53.1047 81.1777L51.6681 80.9103C51.9378 79.8234 52.2195 78.8406 52.5133 77.9617C52.807 77.0817 53.111 76.3286 53.4253 75.7023C53.7384 75.0748 54.059 74.5914 54.387 74.252C54.7138 73.9137 55.0424 73.7446 55.3727 73.7446C56.039 73.7446 56.6521 74.3617 57.2121 75.596C57.7721 76.8314 58.2481 78.6194 58.6401 80.96L57.1538 81.1623C57.0864 80.792 57.0138 80.4126 56.9361 80.024C56.8573 79.6343 56.7761 79.2548 56.6927 78.8857C56.5578 78.88 56.4121 78.8771 56.2555 78.8771C55.9813 78.8771 55.6915 78.8828 55.3864 78.8943C55.0813 78.9046 54.7813 78.9223 54.4864 78.9474C54.1927 78.9726 53.9201 78.9994 53.6687 79.028C53.5624 79.3868 53.4601 79.7497 53.3618 80.1166C53.2635 80.4823 53.1778 80.836 53.1047 81.1777ZM54.651 76.2731C54.5275 76.536 54.3624 76.9617 54.1555 77.5503C54.3967 77.5217 54.6515 77.5006 54.9201 77.4868C55.1887 77.4731 55.4515 77.4663 55.7087 77.4663C55.927 77.4663 56.1373 77.4714 56.3395 77.4817C56.2607 77.196 56.1864 76.9411 56.1167 76.7171C56.047 76.4931 55.9841 76.3171 55.9281 76.1891C55.8104 75.8863 55.7064 75.672 55.6161 75.5463C55.527 75.4206 55.435 75.3577 55.3401 75.3577C55.2395 75.3577 55.1384 75.4234 55.0367 75.5548C54.9361 75.6863 54.8075 75.9257 54.651 76.2731ZM64.947 81.2034C64.5218 81.2034 64.1395 81.1743 63.8001 81.116C63.4618 81.0566 63.175 80.9446 62.9395 80.78C62.7041 80.6143 62.5247 80.372 62.4013 80.0531C62.279 79.7331 62.2178 79.316 62.2178 78.8017C62.2178 78.4257 62.2373 78.0366 62.2761 77.6343C62.315 77.2308 62.3641 76.84 62.4235 76.4617C62.4818 76.0834 62.539 75.7463 62.595 75.4503C62.483 75.4663 62.3875 75.4828 62.3087 75.5L62.1493 74.1646C62.4235 74.1143 62.7413 74.0708 63.1024 74.0343C63.4647 73.9977 63.8487 73.9657 64.2544 73.9383C64.6601 73.9097 65.0647 73.8886 65.4681 73.8748C65.8715 73.8611 66.2493 73.8543 66.6013 73.8543C66.8813 73.8543 67.1378 73.8583 67.371 73.8663C67.603 73.8743 67.7944 73.8868 67.9453 73.904L67.8784 75.3063C67.7275 75.2788 67.523 75.2583 67.2647 75.2446C67.0075 75.2297 66.7195 75.2223 66.4007 75.2223C66.0247 75.2223 65.6241 75.2308 65.199 75.248C64.7738 75.2651 64.3681 75.2846 63.9818 75.3063C63.9361 75.5417 63.8967 75.7828 63.8635 76.0297C63.8304 76.2754 63.7995 76.5188 63.771 76.76C64.0955 76.7154 64.4527 76.6806 64.8424 76.6554C65.231 76.6303 65.6184 76.6103 66.0047 76.5954C66.3921 76.5817 66.7395 76.5748 67.047 76.5748C67.2264 76.5748 67.3858 76.5766 67.5253 76.58C67.6658 76.5823 67.7807 76.5891 67.8698 76.6006L67.8373 77.9771C67.7641 77.9726 67.6647 77.9686 67.539 77.9651C67.4121 77.9628 67.2647 77.9617 67.0967 77.9617C66.8567 77.9617 66.5881 77.9657 66.291 77.9737C65.9938 77.9817 65.687 77.9931 65.3704 78.008C65.055 78.0217 64.7487 78.0383 64.4515 78.0577C64.1544 78.0771 63.8858 78.1011 63.6458 78.1297C63.623 78.4428 63.6115 78.6948 63.6115 78.8857C63.6115 79.16 63.6481 79.3611 63.7213 79.4891C63.7933 79.6183 63.915 79.7011 64.0864 79.7377C64.2567 79.7743 64.4818 79.7926 64.7618 79.7926C65.2601 79.7926 65.7967 79.7503 66.3715 79.6657C66.9453 79.5823 67.5121 79.4508 68.0721 79.2714L68.1647 80.7337C67.4927 80.9177 66.8835 81.0423 66.3373 81.1074C65.791 81.1714 65.3275 81.2034 64.947 81.2034ZM73.1018 81.1777L71.6653 80.9103C71.9338 79.8234 72.215 78.8406 72.5087 77.9617C72.8024 77.0817 73.1064 76.3286 73.4207 75.7023C73.7338 75.0748 74.0544 74.5914 74.3824 74.252C74.7104 73.9137 75.0395 73.7446 75.3698 73.7446C76.0361 73.7446 76.6493 74.3617 77.2093 75.596C77.7693 76.8314 78.2453 78.6194 78.6373 80.96L77.1493 81.1623C77.083 80.792 77.0104 80.4126 76.9315 80.024C76.8527 79.6343 76.7715 79.2548 76.6881 78.8857C76.5533 78.88 76.4075 78.8771 76.251 78.8771C75.9767 78.8771 75.687 78.8828 75.3818 78.8943C75.0767 78.9046 74.7773 78.9223 74.4835 78.9474C74.1887 78.9726 73.9155 78.9994 73.6641 79.028C73.5578 79.3868 73.4555 79.7497 73.3573 80.1166C73.259 80.4823 73.1738 80.836 73.1018 81.1777ZM74.6464 76.2731C74.523 76.536 74.3578 76.9617 74.151 77.5503C74.3921 77.5217 74.647 77.5006 74.9155 77.4868C75.1841 77.4731 75.4475 77.4663 75.7058 77.4663C75.9241 77.4663 76.1338 77.4714 76.335 77.4817C76.2573 77.196 76.183 76.9411 76.1121 76.7171C76.0424 76.4931 75.9795 76.3171 75.9235 76.1891C75.8058 75.8863 75.7024 75.672 75.6133 75.5463C75.523 75.4206 75.4304 75.3577 75.3355 75.3577C75.235 75.3577 75.1344 75.4234 75.0338 75.5548C74.9321 75.6863 74.803 75.9257 74.6464 76.2731Z" fill="black"/>
<path d="M40.5099 86.1337H39.951L39.6527 85.1771H39.4865V84.7897H40.3762V85.1771H40.2579L40.3727 85.6434L40.6385 84.7897H40.9727L41.2453 85.6588L41.3705 85.1771H41.2213V84.7897H41.9139V85.1771H41.7442L41.4579 86.1337H40.8613L40.7002 85.5937L40.5099 86.1337ZM42.1145 86.1337V85.7565H42.2739V84.5994H42.1145V84.2565L42.8773 84.1743V84.9851C42.9104 84.9245 42.9676 84.8725 43.0487 84.8291C43.1299 84.7857 43.2202 84.764 43.3196 84.764C43.4659 84.764 43.5762 84.8068 43.6505 84.8925C43.7247 84.9783 43.7619 85.0983 43.7619 85.2525V85.7565H43.9213V86.1337H43.1584V85.3143C43.1584 85.264 43.1436 85.2228 43.1139 85.1908C43.0853 85.1577 43.0522 85.1411 43.0145 85.1411C42.971 85.1411 42.9373 85.156 42.9133 85.1857C42.8893 85.2143 42.8773 85.2537 42.8773 85.304V85.7565H42.999V86.1337H42.1145ZM44.7853 86.1577C44.6299 86.1577 44.4945 86.1291 44.379 86.072C44.2647 86.0137 44.1767 85.9314 44.115 85.8251C44.0533 85.7188 44.0225 85.5948 44.0225 85.4531C44.0225 85.3125 44.0522 85.1903 44.1116 85.0863C44.1722 84.9823 44.2567 84.9028 44.3653 84.848C44.4739 84.792 44.6013 84.764 44.7476 84.764C44.8825 84.764 45.0013 84.7903 45.1042 84.8428C45.207 84.8965 45.287 84.972 45.3442 85.0691C45.4002 85.1674 45.4282 85.2817 45.4282 85.412C45.4282 85.4565 45.4213 85.4994 45.4076 85.5405H44.6259C44.6259 85.6194 44.6556 85.6823 44.715 85.7291C44.7744 85.776 44.8459 85.7994 44.9293 85.7994C44.9933 85.7994 45.063 85.7885 45.1385 85.7668C45.215 85.744 45.2922 85.7097 45.3699 85.664L45.3905 85.6708V86.0085C45.3047 86.0577 45.2162 86.0948 45.1247 86.12C45.0344 86.1451 44.9213 86.1577 44.7853 86.1577ZM44.6259 85.3194H44.9482V85.2937C44.9482 85.2331 44.9345 85.1817 44.907 85.1394C44.8796 85.096 44.839 85.0743 44.7853 85.0743C44.7407 85.0743 44.703 85.0965 44.6722 85.1411C44.6413 85.1845 44.6259 85.232 44.6259 85.2834V85.3194ZM45.6236 86.1337V85.7565H45.7864V85.1771H45.6236V84.8377L46.3882 84.764V84.9817C46.427 84.9188 46.4927 84.8668 46.5853 84.8257C46.6779 84.7845 46.7596 84.764 46.8304 84.764V85.2954C46.7322 85.2634 46.6516 85.2474 46.5887 85.2474C46.5076 85.2474 46.4539 85.2703 46.4276 85.316C46.4013 85.3628 46.3882 85.424 46.3882 85.4994V85.7565H46.5887V86.1337H45.6236ZM47.7322 86.1577C47.5767 86.1577 47.4413 86.1291 47.3259 86.072C47.2116 86.0137 47.1236 85.9314 47.0619 85.8251C47.0002 85.7188 46.9693 85.5948 46.9693 85.4531C46.9693 85.3125 46.999 85.1903 47.0584 85.0863C47.119 84.9823 47.2036 84.9028 47.3122 84.848C47.4207 84.792 47.5482 84.764 47.6945 84.764C47.8293 84.764 47.9482 84.7903 48.051 84.8428C48.1539 84.8965 48.2339 84.972 48.291 85.0691C48.347 85.1674 48.375 85.2817 48.375 85.412C48.375 85.4565 48.3682 85.4994 48.3545 85.5405H47.5727C47.5727 85.6194 47.6025 85.6823 47.6619 85.7291C47.7213 85.776 47.7927 85.7994 47.8762 85.7994C47.9402 85.7994 48.0099 85.7885 48.0853 85.7668C48.1619 85.744 48.239 85.7097 48.3167 85.664L48.3373 85.6708V86.0085C48.2516 86.0577 48.163 86.0948 48.0716 86.12C47.9813 86.1451 47.8682 86.1577 47.7322 86.1577ZM47.5727 85.3194H47.895V85.2937C47.895 85.2331 47.8813 85.1817 47.8539 85.1394C47.8264 85.096 47.7859 85.0743 47.7322 85.0743C47.6876 85.0743 47.6499 85.0965 47.619 85.1411C47.5882 85.1845 47.5727 85.232 47.5727 85.2834V85.3194ZM50.391 86.6068H49.5219V86.2108H49.7773L49.8459 86.096L49.2596 85.1771H49.1002V84.7897H50.0413V85.1771H49.9179L50.127 85.5628L50.3173 85.1771H50.1802V84.7897H50.883V85.1771H50.7459L50.199 86.2108H50.391V86.6068ZM51.819 86.1577C51.6682 86.1577 51.535 86.1297 51.4196 86.0737C51.3053 86.0177 51.2162 85.9365 51.1522 85.8303C51.0893 85.7228 51.0579 85.5954 51.0579 85.448C51.0579 85.3017 51.0893 85.1771 51.1522 85.0743C51.2162 84.9714 51.3053 84.8943 51.4196 84.8428C51.535 84.7903 51.6682 84.764 51.819 84.764C52.0499 84.764 52.235 84.8234 52.3744 84.9422C52.5127 85.0611 52.5819 85.2297 52.5819 85.448C52.5819 85.5954 52.5504 85.7228 52.4876 85.8303C52.4236 85.9365 52.3344 86.0177 52.2202 86.0737C52.1047 86.1297 51.971 86.1577 51.819 86.1577ZM51.819 85.7891C51.8739 85.7891 51.9144 85.7622 51.9407 85.7085C51.967 85.6548 51.9802 85.568 51.9802 85.448C51.9802 85.336 51.9676 85.2554 51.9425 85.2063C51.9162 85.156 51.875 85.1308 51.819 85.1308C51.7642 85.1308 51.7236 85.156 51.6973 85.2063C51.6722 85.2554 51.6596 85.336 51.6596 85.448C51.6596 85.568 51.6727 85.6548 51.699 85.7085C51.7253 85.7622 51.7653 85.7891 51.819 85.7891ZM53.3224 86.1577C53.0539 86.1577 52.9196 85.9885 52.9196 85.6503V85.1771H52.7567V84.8377L53.5213 84.764V85.6503C53.5213 85.6834 53.5333 85.7137 53.5573 85.7411C53.5813 85.7685 53.6093 85.7823 53.6413 85.7823C53.679 85.7823 53.7087 85.7691 53.7304 85.7428C53.7522 85.7177 53.763 85.6863 53.763 85.6485V85.1771H53.6413V84.8377L54.3647 84.764V85.7565H54.5259V86.1337H53.763V85.9383C53.7184 86.0068 53.659 86.0605 53.5847 86.0994C53.5116 86.1382 53.4242 86.1577 53.3224 86.1577ZM54.6887 86.1337V85.7565H54.8499V85.1771H54.6887V84.8377L55.4516 84.764V84.9817C55.4916 84.9188 55.5579 84.8668 55.6504 84.8257C55.743 84.7845 55.8242 84.764 55.8939 84.764V85.2954C55.7967 85.2634 55.7162 85.2474 55.6522 85.2474C55.5722 85.2474 55.5185 85.2703 55.491 85.316C55.4647 85.3628 55.4516 85.424 55.4516 85.4994V85.7565H55.6522V86.1337H54.6887ZM57.327 86.1577C57.1739 86.1577 57.0402 86.1285 56.9259 86.0703C56.8105 86.012 56.7213 85.9297 56.6585 85.8234C56.5945 85.7171 56.5625 85.592 56.5625 85.448C56.5625 85.3177 56.5893 85.2005 56.643 85.0965C56.6956 84.9925 56.771 84.9114 56.8693 84.8531C56.9687 84.7937 57.0836 84.764 57.2139 84.764C57.287 84.764 57.3653 84.7771 57.4487 84.8034C57.5322 84.8297 57.5847 84.8697 57.6065 84.9234L57.6579 84.7897H57.9304V85.3451H57.5687C57.5619 85.2777 57.5419 85.2251 57.5087 85.1874C57.4767 85.1497 57.4367 85.1308 57.3887 85.1308C57.3167 85.1308 57.2619 85.1537 57.2242 85.1994C57.1864 85.2451 57.1676 85.3285 57.1676 85.4497C57.1676 85.5754 57.2002 85.6623 57.2653 85.7103C57.3304 85.7583 57.4047 85.7823 57.4882 85.7823C57.5487 85.7823 57.6139 85.7714 57.6836 85.7497C57.7544 85.728 57.8173 85.6943 57.8722 85.6485L57.8893 85.6605V86.0103C57.8893 86.0137 57.8636 86.0285 57.8122 86.0548C57.7607 86.08 57.6933 86.1034 57.6099 86.1251C57.5253 86.1468 57.431 86.1577 57.327 86.1577ZM58.9076 86.1577C58.7567 86.1577 58.6242 86.1297 58.5099 86.0737C58.3944 86.0177 58.3053 85.9365 58.2424 85.8303C58.1784 85.7228 58.1465 85.5954 58.1465 85.448C58.1465 85.3017 58.1784 85.1771 58.2424 85.0743C58.3053 84.9714 58.3944 84.8943 58.5099 84.8428C58.6242 84.7903 58.7567 84.764 58.9076 84.764C59.1396 84.764 59.3247 84.8234 59.463 84.9422C59.6024 85.0611 59.6722 85.2297 59.6722 85.448C59.6722 85.5954 59.6402 85.7228 59.5762 85.8303C59.5133 85.9365 59.4242 86.0177 59.3087 86.0737C59.1945 86.1297 59.0607 86.1577 58.9076 86.1577ZM58.9076 85.7891C58.9625 85.7891 59.003 85.7622 59.0293 85.7085C59.0567 85.6548 59.0704 85.568 59.0704 85.448C59.0704 85.336 59.0573 85.2554 59.031 85.2063C59.0059 85.156 58.9647 85.1308 58.9076 85.1308C58.8527 85.1308 58.8127 85.156 58.7876 85.2063C58.7613 85.2554 58.7482 85.336 58.7482 85.448C58.7482 85.568 58.7613 85.6548 58.7876 85.7085C58.815 85.7622 58.855 85.7891 58.9076 85.7891ZM62.403 85.772H62.5779V86.1337H61.8013V85.2783C61.8013 85.2417 61.7893 85.2097 61.7653 85.1823C61.7424 85.1548 61.715 85.1411 61.683 85.1411C61.6213 85.1411 61.5819 85.172 61.5647 85.2337C61.5487 85.2943 61.5407 85.3817 61.5407 85.496V86.1337H60.939V85.2783C60.939 85.2417 60.9276 85.2097 60.9047 85.1823C60.8819 85.1548 60.8539 85.1411 60.8207 85.1411C60.759 85.1411 60.7202 85.172 60.7042 85.2337C60.6882 85.2943 60.6802 85.3817 60.6802 85.496V85.772H60.6819V86.1337H59.8985V85.772H60.0802V85.1771H59.8985V84.8377L60.6802 84.764V84.9508C60.7384 84.8823 60.8042 84.8343 60.8773 84.8068C60.9516 84.7783 61.035 84.764 61.1276 84.764C61.3173 84.764 61.4413 84.8445 61.4996 85.0057C61.5613 84.9177 61.6327 84.8554 61.7139 84.8188C61.7939 84.7822 61.8853 84.764 61.9882 84.764C62.2647 84.764 62.403 84.936 62.403 85.28V85.772ZM62.7116 86.1337V85.7565H62.9122V85.1565H62.7116V84.7897H62.9122V84.668C62.9122 84.3308 63.0613 84.1623 63.3596 84.1623C63.4247 84.1623 63.495 84.168 63.5704 84.1794C63.6459 84.192 63.7076 84.2057 63.7556 84.2205V84.5908C63.6916 84.5805 63.6476 84.5754 63.6236 84.5754C63.5505 84.5754 63.5139 84.6314 63.5139 84.7434V84.7897H63.7556V85.1565H63.5139V85.7565H63.7556V86.1337H62.7116ZM64.7242 86.1577C64.5733 86.1577 64.4407 86.1297 64.3264 86.0737C64.211 86.0177 64.1219 85.9365 64.059 85.8303C63.995 85.7228 63.963 85.5954 63.963 85.448C63.963 85.3017 63.995 85.1771 64.059 85.0743C64.1219 84.9714 64.211 84.8943 64.3264 84.8428C64.4407 84.7903 64.5733 84.764 64.7242 84.764C64.9562 84.764 65.1413 84.8234 65.2796 84.9422C65.419 85.0611 65.4887 85.2297 65.4887 85.448C65.4887 85.5954 65.4567 85.7228 65.3927 85.8303C65.3299 85.9365 65.2407 86.0177 65.1253 86.0737C65.011 86.1297 64.8773 86.1577 64.7242 86.1577ZM64.7242 85.7891C64.779 85.7891 64.8196 85.7622 64.8459 85.7085C64.8733 85.6548 64.887 85.568 64.887 85.448C64.887 85.336 64.8739 85.2554 64.8476 85.2063C64.8224 85.156 64.7813 85.1308 64.7242 85.1308C64.6693 85.1308 64.6293 85.156 64.6042 85.2063C64.5779 85.2554 64.5647 85.336 64.5647 85.448C64.5647 85.568 64.5779 85.6548 64.6042 85.7085C64.6316 85.7622 64.6716 85.7891 64.7242 85.7891ZM65.6636 86.1337V85.7565H65.8247V85.1771H65.6636V84.8377L66.4264 84.764V84.9817C66.4664 84.9188 66.5327 84.8668 66.6253 84.8257C66.7179 84.7845 66.799 84.764 66.8687 84.764V85.2954C66.7716 85.2634 66.691 85.2474 66.627 85.2474C66.547 85.2474 66.4933 85.2703 66.4659 85.316C66.4396 85.3628 66.4264 85.424 66.4264 85.4994V85.7565H66.627V86.1337H65.6636ZM67.6539 86.1577C67.4904 86.1577 67.3687 86.116 67.2887 86.0325C67.2099 85.9491 67.1704 85.8228 67.1704 85.6537V85.1565H66.9699V84.7897H67.1704V84.5017L67.7722 84.368V84.7897H68.0139V85.1565H67.7722V85.6091C67.7722 85.6468 67.7859 85.6782 67.8133 85.7034C67.8419 85.7285 67.8779 85.7411 67.9213 85.7411C67.9522 85.7411 67.983 85.7383 68.0139 85.7325V86.0823C67.9042 86.1325 67.7842 86.1577 67.6539 86.1577ZM69.2276 84.6577C69.1224 84.6577 69.0362 84.6331 68.9687 84.584C68.9013 84.5337 68.8676 84.4623 68.8676 84.3697C68.8676 84.2771 68.9013 84.2068 68.9687 84.1588C69.0362 84.1108 69.123 84.0868 69.2293 84.0868C69.3356 84.0868 69.4224 84.1108 69.4899 84.1588C69.5562 84.2057 69.5893 84.276 69.5893 84.3697C69.5893 84.4623 69.555 84.5337 69.4864 84.584C69.4179 84.6331 69.3316 84.6577 69.2276 84.6577ZM69.6904 86.1337H68.7647V85.7565H68.9259V85.1771H68.7647V84.8685L69.5276 84.7897V85.7565H69.6904V86.1337ZM70.5819 86.1577C70.4104 86.1577 70.259 86.112 70.1276 86.0205L70.0864 86.1337H69.8516V85.6383H70.1327C70.143 85.7011 70.1722 85.7583 70.2202 85.8097C70.2693 85.86 70.3259 85.8851 70.3899 85.8851C70.4139 85.8851 70.4344 85.8783 70.4516 85.8645C70.4699 85.8508 70.479 85.8285 70.479 85.7977C70.479 85.7668 70.4613 85.7388 70.4259 85.7137C70.3916 85.6885 70.3385 85.6588 70.2665 85.6245C70.1807 85.5823 70.1104 85.5434 70.0556 85.508C70.0007 85.4725 69.9527 85.4263 69.9116 85.3691C69.8716 85.312 69.8516 85.2428 69.8516 85.1617C69.8516 85.0782 69.8784 85.0063 69.9322 84.9457C69.987 84.8863 70.059 84.8411 70.1482 84.8103C70.2373 84.7794 70.3339 84.764 70.4379 84.764C70.575 84.764 70.7019 84.8 70.8184 84.872L70.8493 84.7897H71.0585V85.1908H70.8167C70.7962 85.136 70.7659 85.0931 70.7259 85.0623C70.687 85.0314 70.6407 85.016 70.587 85.016C70.5585 85.016 70.5356 85.02 70.5184 85.028C70.5024 85.0371 70.4944 85.0525 70.4944 85.0743C70.4967 85.1017 70.5133 85.1251 70.5442 85.1445C70.575 85.1628 70.6264 85.1874 70.6985 85.2183C70.7876 85.256 70.8613 85.292 70.9196 85.3263C70.9779 85.3605 71.0287 85.4091 71.0722 85.472C71.1156 85.5348 71.1373 85.6125 71.1373 85.7051C71.1373 85.8023 71.1116 85.8851 71.0602 85.9537C71.0087 86.0211 70.9413 86.072 70.8579 86.1063C70.7733 86.1405 70.6813 86.1577 70.5819 86.1577ZM71.8933 86.1337V85.7565H72.0939V85.1565H71.8933V84.7897H72.0939V84.668C72.0939 84.3308 72.243 84.1623 72.5413 84.1623C72.6064 84.1623 72.6767 84.168 72.7522 84.1794C72.8276 84.192 72.8893 84.2057 72.9373 84.2205V84.5908C72.8745 84.5805 72.831 84.5754 72.807 84.5754C72.7327 84.5754 72.6956 84.6314 72.6956 84.7434V84.7897H72.9373V85.1565H72.6956V85.7565H72.9373V86.1337H71.8933ZM73.9076 86.1577C73.7567 86.1577 73.6236 86.1297 73.5082 86.0737C73.3939 86.0177 73.3047 85.9365 73.2407 85.8303C73.1779 85.7228 73.1465 85.5954 73.1465 85.448C73.1465 85.3017 73.1779 85.1771 73.2407 85.0743C73.3047 84.9714 73.3939 84.8943 73.5082 84.8428C73.6236 84.7903 73.7567 84.764 73.9076 84.764C74.1385 84.764 74.3236 84.8234 74.463 84.9422C74.6013 85.0611 74.6704 85.2297 74.6704 85.448C74.6704 85.5954 74.639 85.7228 74.5762 85.8303C74.5122 85.9365 74.423 86.0177 74.3087 86.0737C74.1933 86.1297 74.0596 86.1577 73.9076 86.1577ZM73.9076 85.7891C73.9624 85.7891 74.003 85.7622 74.0293 85.7085C74.0556 85.6548 74.0687 85.568 74.0687 85.448C74.0687 85.336 74.0562 85.2554 74.031 85.2063C74.0047 85.156 73.9636 85.1308 73.9076 85.1308C73.8527 85.1308 73.8122 85.156 73.7859 85.2063C73.7607 85.2554 73.7482 85.336 73.7482 85.448C73.7482 85.568 73.7613 85.6548 73.7876 85.7085C73.8139 85.7622 73.8539 85.7891 73.9076 85.7891ZM75.411 86.1577C75.1424 86.1577 75.0082 85.9885 75.0082 85.6503V85.1771H74.8453V84.8377L75.6099 84.764V85.6503C75.6099 85.6834 75.6219 85.7137 75.6459 85.7411C75.6699 85.7685 75.6979 85.7823 75.7299 85.7823C75.7676 85.7823 75.7973 85.7691 75.819 85.7428C75.8407 85.7177 75.8516 85.6863 75.8516 85.6485V85.1771H75.7299V84.8377L76.4533 84.764V85.7565H76.6145V86.1337H75.8516V85.9383C75.807 86.0068 75.7476 86.0605 75.6733 86.0994C75.6002 86.1382 75.5127 86.1577 75.411 86.1577ZM78.471 85.772H78.6459V86.1337H77.8693V85.2783C77.8693 85.2417 77.8579 85.2097 77.835 85.1823C77.8122 85.1548 77.7842 85.1411 77.751 85.1411C77.6893 85.1411 77.6504 85.172 77.6344 85.2337C77.6184 85.2943 77.6105 85.3817 77.6105 85.496V85.772H77.6122V86.1337H76.8287V85.772H77.0105V85.1771H76.8287V84.8377L77.6105 84.764V84.9508C77.6687 84.8823 77.7344 84.8343 77.8076 84.8068C77.8819 84.7783 77.9653 84.764 78.0579 84.764C78.3333 84.764 78.471 84.936 78.471 85.28V85.772ZM79.3539 86.1577C79.2316 86.1577 79.1264 86.1257 79.0384 86.0617C78.9504 85.9965 78.8836 85.9097 78.8379 85.8011C78.7922 85.6925 78.7693 85.5731 78.7693 85.4428C78.7693 85.3228 78.7927 85.2108 78.8396 85.1068C78.8853 85.0028 78.9516 84.92 79.0384 84.8583C79.1253 84.7954 79.227 84.764 79.3436 84.764C79.4293 84.764 79.5024 84.7777 79.563 84.8051C79.6236 84.8325 79.6807 84.8737 79.7344 84.9285V84.5994H79.5339V84.2565L80.3379 84.1743V85.7565H80.4973V86.1337H79.7242V85.9725C79.683 86.0274 79.6305 86.0714 79.5665 86.1045C79.5036 86.1377 79.4327 86.1554 79.3539 86.1577ZM79.5545 85.7891C79.5933 85.7891 79.6287 85.78 79.6607 85.7617C79.6927 85.7422 79.7173 85.72 79.7344 85.6948V85.2183C79.715 85.1965 79.6893 85.1765 79.6573 85.1583C79.6242 85.14 79.5899 85.1308 79.5545 85.1308C79.4893 85.1308 79.4362 85.1577 79.395 85.2114C79.3539 85.264 79.3333 85.3411 79.3333 85.4428C79.3333 85.5457 79.3522 85.6291 79.3899 85.6931C79.4276 85.7571 79.4824 85.7891 79.5545 85.7891Z" fill="black"/>
</g>
<defs>
<clipPath id="clip0_49_421">
<rect width="120" height="120" fill="white"/>
</clipPath>
</defs>
</svg>
