<svg width="300" height="244" viewBox="0 0 300 244" fill="none" xmlns="http://www.w3.org/2000/svg">
<path d="M94.9728 126.936H50.7193V242.769H94.9728V126.936Z" fill="#F0F0F0"/>
<path d="M94.9734 126.936H72.8463V242.769H94.9734V126.936Z" fill="#E6E6E6"/>
<path d="M71.3996 113.167H55.7724V126.935H71.3996V113.167Z" fill="#F0F0F0"/>
<path d="M71.3996 113.167H67.6751V126.935H71.3996V113.167Z" fill="#E6E6E6"/>
<path d="M96.2683 126.133H47.0313V126.936H96.2683V126.133Z" fill="#E0E0E0"/>
<path d="M63.2006 132.94H59.4546V140.839H63.2006V132.94Z" fill="white"/>
<path d="M72.8463 143.939C72.8463 144.022 67.8929 144.09 61.7834 144.09C55.6722 144.09 50.7193 144.022 50.7193 143.939C50.7193 143.856 55.6722 143.788 61.7834 143.788C67.8929 143.788 72.8463 143.856 72.8463 143.939Z" fill="#E0E0E0"/>
<path d="M85.5205 132.94H81.7745V140.839H85.5205V132.94Z" fill="#E0E0E0"/>
<path d="M95.1656 143.939C95.1656 144.022 90.2122 144.09 84.1027 144.09C77.9915 144.09 73.0386 144.022 73.0386 143.939C73.0386 143.856 77.9909 143.788 84.1027 143.788C90.2122 143.788 95.1656 143.856 95.1656 143.939Z" fill="#E0E0E0"/>
<path d="M85.5205 148.623H81.7745V156.521H85.5205V148.623Z" fill="#E0E0E0"/>
<path d="M95.1656 159.62C95.1656 159.704 90.2122 159.771 84.1027 159.771C77.9915 159.771 73.0386 159.703 73.0386 159.62C73.0386 159.537 77.9909 159.47 84.1027 159.47C90.2122 159.47 95.1656 159.537 95.1656 159.62Z" fill="#E0E0E0"/>
<path d="M85.5205 164.778H81.7745V172.676H85.5205V164.778Z" fill="#E0E0E0"/>
<path d="M95.1656 175.776C95.1656 175.86 90.2122 175.927 84.1027 175.927C77.9915 175.927 73.0386 175.859 73.0386 175.776C73.0386 175.693 77.9909 175.626 84.1027 175.626C90.2122 175.626 95.1656 175.693 95.1656 175.776Z" fill="#E0E0E0"/>
<path d="M85.5205 180.932H81.7745V188.831H85.5205V180.932Z" fill="#E0E0E0"/>
<path d="M95.1656 191.93C95.1656 192.014 90.2122 192.081 84.1027 192.081C77.9915 192.081 73.0386 192.013 73.0386 191.93C73.0386 191.847 77.9909 191.78 84.1027 191.78C90.2122 191.78 95.1656 191.848 95.1656 191.93Z" fill="#E0E0E0"/>
<path d="M85.5205 196.625H81.7745V204.524H85.5205V196.625Z" fill="#E0E0E0"/>
<path d="M95.1656 207.624C95.1656 207.708 90.2122 207.775 84.1027 207.775C77.9915 207.775 73.0386 207.708 73.0386 207.624C73.0386 207.541 77.9909 207.474 84.1027 207.474C90.2122 207.473 95.1656 207.541 95.1656 207.624Z" fill="#E0E0E0"/>
<path d="M85.5205 212.381H81.7745V220.28H85.5205V212.381Z" fill="#E0E0E0"/>
<path d="M85.5205 228.343H81.7745V236.242H85.5205V228.343Z" fill="#E0E0E0"/>
<path d="M95.1656 223.379C95.1656 223.463 89.1541 223.86 83.0446 223.86C76.9334 223.86 73.0386 223.463 73.0386 223.379C73.0386 223.296 77.9909 223.229 84.1027 223.229C90.2122 223.229 95.1656 223.297 95.1656 223.379Z" fill="#E0E0E0"/>
<path d="M63.2006 148.862H59.4546V156.76H63.2006V148.862Z" fill="white"/>
<path d="M72.8463 159.86C72.8463 159.943 67.8929 160.01 61.7834 160.01C55.6722 160.01 50.7193 159.943 50.7193 159.86C50.7193 159.776 55.6722 159.709 61.7834 159.709C67.8929 159.709 72.8463 159.777 72.8463 159.86Z" fill="#E0E0E0"/>
<path d="M63.2006 164.783H59.4546V172.681H63.2006V164.783Z" fill="white"/>
<path d="M72.8463 175.782C72.8463 175.865 67.8929 175.933 61.7834 175.933C55.6722 175.933 50.7193 175.865 50.7193 175.782C50.7193 175.699 55.6722 175.631 61.7834 175.631C67.8929 175.631 72.8463 175.699 72.8463 175.782Z" fill="#E0E0E0"/>
<path d="M63.2006 180.704H59.4546V188.603H63.2006V180.704Z" fill="white"/>
<path d="M72.8463 191.702C72.8463 191.786 67.8929 191.853 61.7834 191.853C55.6722 191.853 50.7193 191.785 50.7193 191.702C50.7193 191.619 55.6722 191.552 61.7834 191.552C67.8929 191.552 72.8463 191.619 72.8463 191.702Z" fill="#E0E0E0"/>
<path d="M63.2006 196.625H59.4546V204.524H63.2006V196.625Z" fill="white"/>
<path d="M72.8463 207.624C72.8463 207.707 67.8929 207.774 61.7834 207.774C55.6722 207.774 50.7193 207.707 50.7193 207.624C50.7193 207.54 55.6722 207.473 61.7834 207.473C67.8929 207.472 72.8463 207.54 72.8463 207.624Z" fill="#E0E0E0"/>
<path d="M63.2006 212.546H59.4546V220.444H63.2006V212.546Z" fill="white"/>
<path d="M72.8463 223.544C72.8463 223.628 67.8929 223.695 61.7834 223.695C55.6722 223.695 50.7193 223.627 50.7193 223.544C50.7193 223.461 55.6722 223.394 61.7834 223.394C67.8929 223.394 72.8463 223.461 72.8463 223.544Z" fill="#E0E0E0"/>
<path d="M63.2006 228.467H59.4546V236.366H63.2006V228.467Z" fill="white"/>
<path d="M58.9629 198.306H25.0276V243.065H58.9629V198.306Z" fill="#F0F0F0"/>
<path d="M58.9629 198.306H43.0513V243.065H58.9629V198.306Z" fill="#EBEBEB"/>
<path d="M35.194 204.366H32.1431V211.779H35.194V204.366Z" fill="white"/>
<path d="M35.194 233.38H32.1431V240.793H35.194V233.38Z" fill="white"/>
<path d="M43.0513 214.689C43.0513 214.772 39.0164 214.839 34.0398 214.839C29.062 214.839 25.0276 214.772 25.0276 214.689C25.0276 214.605 29.062 214.538 34.0398 214.538C39.0158 214.538 43.0513 214.605 43.0513 214.689Z" fill="#E0E0E0"/>
<path d="M35.194 218.982H32.1431V226.395H35.194V218.982Z" fill="white"/>
<path d="M43.0513 229.305C43.0513 229.389 39.0164 229.456 34.0398 229.456C29.062 229.456 25.0276 229.389 25.0276 229.305C25.0276 229.222 29.062 229.155 34.0398 229.155C39.0158 229.154 43.0513 229.222 43.0513 229.305Z" fill="#E0E0E0"/>
<path d="M49.4811 204.366H46.4301V211.779H49.4811V204.366Z" fill="#E0E0E0"/>
<path d="M56.1008 204.366H53.0498V211.779H56.1008V204.366Z" fill="#E0E0E0"/>
<path d="M49.4811 218.432H46.4301V225.846H49.4811V218.432Z" fill="#E0E0E0"/>
<path d="M56.1008 218.432H53.0498V225.846H56.1008V218.432Z" fill="#E0E0E0"/>
<path d="M49.4811 232.499H46.4301V239.912H49.4811V232.499Z" fill="#E0E0E0"/>
<path d="M56.1008 232.499H53.0498V239.912H56.1008V232.499Z" fill="#E0E0E0"/>
<path d="M61.5135 196.748H22.4764V198.362H61.5135V196.748Z" fill="#E0E0E0"/>
<path d="M59.1998 198.514C59.1998 198.598 51.6152 198.665 42.2608 198.665C32.9035 198.665 25.3201 198.597 25.3201 198.514C25.3201 198.431 32.9035 198.364 42.2608 198.364C51.6147 198.363 59.1998 198.431 59.1998 198.514Z" fill="#E0E0E0"/>
<path d="M210.958 85.7407H150.758V243.312H210.958V85.7407Z" fill="#F0F0F0"/>
<path d="M210.958 85.7407H180.858V243.312H210.958V85.7407Z" fill="#EBEBEB"/>
<path d="M212.72 84.6487H145.741V85.741H212.72V84.6487Z" fill="#E0E0E0"/>
<path d="M168.315 93.9099H163.22V104.654H168.315V93.9099Z" fill="white"/>
<path d="M181.437 108.872C181.437 108.985 174.699 109.077 166.388 109.077C158.074 109.077 151.338 108.985 151.338 108.872C151.338 108.758 158.075 108.667 166.388 108.667C174.698 108.667 181.437 108.759 181.437 108.872Z" fill="#E0E0E0"/>
<path d="M198.677 115.242H193.582V125.987H198.677V115.242Z" fill="#E0E0E0"/>
<path d="M211.799 130.205C211.799 130.318 205.06 130.41 196.749 130.41C188.436 130.41 181.699 130.318 181.699 130.205C181.699 130.091 188.436 130 196.749 130C205.06 130 211.799 130.091 211.799 130.205Z" fill="#E0E0E0"/>
<path d="M198.677 137.219H193.582V147.963H198.677V137.219Z" fill="#E0E0E0"/>
<path d="M211.799 152.179C211.799 152.293 205.06 152.384 196.749 152.384C188.436 152.384 181.699 152.292 181.699 152.179C181.699 152.066 188.436 151.974 196.749 151.974C205.06 151.974 211.799 152.067 211.799 152.179Z" fill="#E0E0E0"/>
<path d="M198.677 159.195H193.582V169.939H198.677V159.195Z" fill="#E0E0E0"/>
<path d="M211.799 174.156C211.799 174.269 205.06 174.361 196.749 174.361C188.436 174.361 181.699 174.269 181.699 174.156C181.699 174.042 188.436 173.951 196.749 173.951C205.06 173.951 211.799 174.043 211.799 174.156Z" fill="#E0E0E0"/>
<path d="M198.677 180.542H193.582V191.286H198.677V180.542Z" fill="#E0E0E0"/>
<path d="M211.799 195.503C211.799 195.617 205.06 195.708 196.749 195.708C188.436 195.708 181.699 195.616 181.699 195.503C181.699 195.39 188.436 195.298 196.749 195.298C205.06 195.298 211.799 195.39 211.799 195.503Z" fill="#E0E0E0"/>
<path d="M198.677 201.975H193.582V212.72H198.677V201.975Z" fill="#E0E0E0"/>
<path d="M198.677 223.69H193.582V234.434H198.677V223.69Z" fill="#E0E0E0"/>
<path d="M211.799 216.937C211.799 217.051 205.06 217.142 196.749 217.142C188.436 217.142 181.699 217.05 181.699 216.937C181.699 216.824 188.436 216.732 196.749 216.732C205.06 216.732 211.799 216.824 211.799 216.937Z" fill="#E0E0E0"/>
<path d="M168.315 115.568H163.22V126.313H168.315V115.568Z" fill="white"/>
<path d="M181.437 130.53C181.437 130.643 174.699 130.735 166.388 130.735C158.074 130.735 151.338 130.642 151.338 130.53C151.338 130.416 158.075 130.325 166.388 130.325C174.698 130.325 181.437 130.417 181.437 130.53Z" fill="#E0E0E0"/>
<path d="M168.315 137.226H163.22V147.971H168.315V137.226Z" fill="white"/>
<path d="M181.437 152.188C181.437 152.301 174.699 152.393 166.388 152.393C158.074 152.393 151.338 152.301 151.338 152.188C151.338 152.074 158.075 151.983 166.388 151.983C174.698 151.983 181.437 152.075 181.437 152.188Z" fill="#E0E0E0"/>
<path d="M168.315 158.884H163.22V169.629H168.315V158.884Z" fill="white"/>
<path d="M181.437 173.845C181.437 173.959 174.699 174.051 166.388 174.051C158.074 174.051 151.338 173.958 151.338 173.845C151.338 173.732 158.075 173.64 166.388 173.64C174.698 173.64 181.437 173.733 181.437 173.845Z" fill="#E0E0E0"/>
<path d="M168.315 180.542H163.22V191.286H168.315V180.542Z" fill="white"/>
<path d="M181.437 195.503C181.437 195.617 174.699 195.708 166.388 195.708C158.074 195.708 151.338 195.616 151.338 195.503C151.338 195.39 158.075 195.298 166.388 195.298C174.698 195.298 181.437 195.39 181.437 195.503Z" fill="#E0E0E0"/>
<path d="M168.315 202.2H163.22V212.944H168.315V202.2Z" fill="white"/>
<path d="M181.437 217.162C181.437 217.275 174.699 217.367 166.388 217.367C158.074 217.367 151.338 217.275 151.338 217.162C151.338 217.048 158.075 216.957 166.388 216.957C174.698 216.956 181.437 217.048 181.437 217.162Z" fill="#E0E0E0"/>
<path d="M168.315 223.858H163.22V234.602H168.315V223.858Z" fill="white"/>
<path d="M250.287 184.773H206.029V243.148H250.287V184.773Z" fill="#E0E0E0"/>
<path d="M250.287 184.773H229.535V243.148H250.287V184.773Z" fill="#EBEBEB"/>
<path d="M219.288 192.676H215.308V202.344H219.288V192.676Z" fill="white"/>
<path d="M219.288 230.516H215.308V240.184H219.288V230.516Z" fill="white"/>
<path d="M229.535 206.139C229.535 206.223 224.272 206.29 217.782 206.29C211.29 206.29 206.029 206.222 206.029 206.139C206.029 206.057 211.29 205.989 217.782 205.989C224.272 205.989 229.535 206.056 229.535 206.139Z" fill="#FAFAFA"/>
<path d="M237.921 192.676H233.942V202.344H237.921V192.676Z" fill="#E0E0E0"/>
<path d="M246.555 192.676H242.575V202.344H246.555V192.676Z" fill="#E0E0E0"/>
<path d="M237.921 211.022H233.942V220.691H237.921V211.022Z" fill="#E0E0E0"/>
<path d="M246.555 211.022H242.575V220.691H246.555V211.022Z" fill="#E0E0E0"/>
<path d="M237.921 229.368H233.942V239.036H237.921V229.368Z" fill="#E0E0E0"/>
<path d="M246.555 229.368H242.575V239.036H246.555V229.368Z" fill="#E0E0E0"/>
<path d="M253.614 182.74H202.701V184.846H253.614V182.74Z" fill="#E0E0E0"/>
<path d="M197.042 111.17C197.108 111.212 197.595 110.545 197.988 109.612C198.384 108.68 198.525 107.866 198.448 107.848C198.366 107.826 198.102 108.587 197.715 109.496C197.332 110.407 196.97 111.127 197.042 111.17Z" fill="#FEC505"/>
<path d="M38 37.6831H54.7809C54.7809 37.6831 54.7832 33.8415 52.7996 33.8415C50.183 33.8415 49.7232 36.2236 49.7232 36.2236C49.7232 36.2236 49.7232 29.0531 46.1156 30.1054C42.7015 31.101 42.3158 35.6908 42.3158 35.6908C42.3158 35.6908 41.7014 33.3829 39.851 34.6836C38 35.9838 38 37.6831 38 37.6831Z" fill="#EBEBEB"/>
<path d="M196 68.7712H219.526C219.526 68.7712 219.529 63.3856 216.748 63.3856C213.08 63.3856 212.435 66.725 212.435 66.725C212.435 66.725 212.435 56.6727 207.377 58.1478C202.591 59.5436 202.05 65.9779 202.05 65.9779C202.05 65.9779 201.189 62.7422 198.594 64.5659C196 66.3885 196 68.7712 196 68.7712Z" fill="#EBEBEB"/>
<path d="M18 96.7712H41.5257C41.5257 96.7712 41.5286 91.3856 38.7481 91.3856C35.0797 91.3856 34.4346 94.725 34.4346 94.725C34.4346 94.725 34.4346 84.6727 29.3768 86.1478C24.5907 87.5436 24.0498 93.9779 24.0498 93.9779C24.0498 93.9779 23.1886 90.7422 20.594 92.5659C18 94.3885 18 96.7712 18 96.7712Z" fill="#EBEBEB"/>
<path d="M300 243.5C300 243.644 232.838 243.76 150.007 243.76C67.1484 243.76 0 243.644 0 243.5C0 243.356 67.1484 243.24 150.007 243.24C232.838 243.239 300 243.356 300 243.5Z" fill="#263238"/>
<path d="M232.924 239.244L231.403 234.337L240.576 231.428L242.878 238.584L242.321 238.801C239.834 239.744 229.609 243.42 227.754 243.444C225.685 243.47 232.924 239.244 232.924 239.244Z" fill="#F29971"/>
<path d="M197.857 98.89L197.453 97.112C197.453 97.112 197.035 96.0765 196.713 94.1371C196.629 93.6338 196.637 93.1195 196.727 92.6174C196.836 92.0087 197.013 91.2048 197.247 90.796C197.536 90.2892 197.058 89.6944 196.575 89.9104C196.091 90.1265 195.26 91.5043 195.097 93.3761C194.934 95.2477 193.274 92.801 192.653 91.9201C192.032 91.0392 189.984 88.4035 189.561 88.3797C188.942 88.345 188.791 89.0017 189.432 89.867C190.08 90.7427 191.81 93.4629 191.329 93.7682C191.329 93.7682 190.558 93.7154 190.189 93.9129C190.065 93.979 189.987 94.0722 189.996 94.2047C190.034 94.7346 189.969 95.0577 189.969 95.0577C189.969 95.0577 189.217 94.9512 189.09 95.2842C188.963 95.6172 189.028 96.3232 189.028 96.3232C189.028 96.3232 188.445 96.1743 188.191 96.4089C187.642 96.9157 188.451 97.6466 188.451 97.6466C190.367 99.7755 194.264 102.855 194.264 102.855L197.868 98.7834" fill="#E5BAAB"/>
<path d="M245.312 240.5V235.363L254.935 235.301L255.015 242.817L254.419 242.86C251.764 243.024 240.909 243.509 239.131 242.982C237.147 242.394 245.312 240.5 245.312 240.5Z" fill="#F29971"/>
<path fill-rule="evenodd" clip-rule="evenodd" d="M231.937 239.025C231.937 239.025 222.443 206.957 219.206 193.794C216.506 182.815 229.616 139.379 229.617 139.379L241.255 138.485L260.394 136.934L258.254 239.728L241.639 239.51L241.677 236.359L231.937 239.025ZM242.051 151.367C242.051 151.367 232.8 186.889 232.712 189.692C232.658 191.396 237.811 207.791 241.857 220.376C242.111 196.651 242.398 156.303 242.051 151.367Z" fill="#263238"/>
<path d="M241.909 218.299C241.889 218.3 241.873 218.586 241.86 219.104C241.852 219.678 241.841 220.414 241.829 221.295C241.8 223.202 241.763 225.729 241.722 228.522C241.646 231.316 241.577 233.844 241.525 235.749C241.5 236.631 241.48 237.366 241.464 237.94C241.454 238.458 241.458 238.744 241.478 238.746C241.498 238.747 241.533 238.462 241.578 237.946C241.624 237.43 241.677 236.683 241.733 235.759C241.845 233.911 241.958 231.355 242.017 228.529C242.076 225.704 242.071 223.146 242.038 221.295C242.021 220.369 241.999 219.62 241.975 219.103C241.953 218.585 241.93 218.299 241.909 218.299Z" fill="#455A64"/>
<path d="M251.127 70.5847C252.045 72.7426 253.81 74.5264 255.958 75.4675C256.572 75.7363 257.317 76.0606 257.402 76.7255C257.468 77.2432 257.065 77.7141 256.609 77.9683C255.841 78.3957 254.852 78.3946 254.085 77.9654C254.303 78.4449 254.526 78.9477 254.499 79.4741C254.471 80.0005 254.102 80.549 253.576 80.5878C252.899 80.6382 252.463 79.9056 252.195 79.2818C252.567 80.1036 252.219 81.1797 251.437 81.6285C250.655 82.0774 249.55 81.8353 249.027 81.1009" fill="#263238"/>
<path d="M250.41 90.1268L240.755 90.8409C240.626 89.7237 240.439 85.3824 240.439 85.3824C240.439 85.3824 236.406 85.0077 236.111 81.0173C235.815 77.027 235.941 67.8138 235.941 67.8138C240.441 65.5418 245.819 65.8835 249.996 68.7063L250.615 69.1256L250.41 90.1268Z" fill="#E5BAAB"/>
<path d="M238.148 74.559C238.372 74.329 238.367 73.9613 238.138 73.7372C237.908 73.513 237.54 73.5176 237.316 73.7475C237.092 73.9774 237.096 74.3452 237.326 74.5693C237.556 74.7935 237.924 74.7889 238.148 74.559Z" fill="#263238"/>
<path d="M236.294 73.7432C236.36 73.8086 236.734 73.4826 237.284 73.4461C237.834 73.4015 238.251 73.6691 238.307 73.5949C238.335 73.5619 238.265 73.4409 238.083 73.3193C237.904 73.1982 237.603 73.0893 237.26 73.1148C236.917 73.1403 236.635 73.292 236.476 73.438C236.313 73.5845 236.261 73.7142 236.294 73.7432Z" fill="#263238"/>
<path d="M243.136 73.857C242.874 74.0417 242.811 74.4043 242.995 74.6666C243.18 74.929 243.542 74.9921 243.805 74.8074C244.067 74.6226 244.13 74.2601 243.945 73.9977C243.761 73.736 243.399 73.6728 243.136 73.857Z" fill="#263238"/>
<path d="M242.15 73.8841C242.217 73.9495 242.59 73.6235 243.14 73.587C243.69 73.5424 244.107 73.8099 244.164 73.7358C244.192 73.7022 244.121 73.5818 243.939 73.4601C243.76 73.3391 243.459 73.2302 243.116 73.2557C242.774 73.2812 242.492 73.4329 242.332 73.5789C242.169 73.726 242.118 73.8557 242.15 73.8841Z" fill="#263238"/>
<path d="M240.338 78.5581C240.339 78.517 239.994 78.4718 239.437 78.4307C239.292 78.4243 239.173 78.4 239.155 78.3183C239.122 78.2285 239.17 78.0704 239.232 77.895C239.35 77.5243 239.47 77.1467 239.597 76.7506C240.1 75.1214 240.444 73.7813 240.366 73.7569C240.287 73.7326 239.817 75.034 239.314 76.6631C239.196 77.0616 239.082 77.4421 238.972 77.8145C238.928 77.9841 238.842 78.1834 238.929 78.4121C238.975 78.5262 239.091 78.6038 239.186 78.623C239.281 78.6455 239.363 78.6409 239.431 78.6403C239.99 78.6276 240.337 78.5992 240.338 78.5581Z" fill="#263238"/>
<path d="M242.162 79.0554C242.714 78.6789 240.636 79.9913 239.513 80.0058C239.513 80.0058 240.219 80.9926 241.344 80.5004C242.512 79.989 242.162 79.0554 242.162 79.0554Z" fill="white"/>
<path d="M249.849 72.6687C249.935 72.6363 252.812 72.2622 252.54 75.6583C252.268 79.0544 248.928 77.6569 248.93 77.5591C248.931 77.4618 249.849 72.6687 249.849 72.6687Z" fill="#E5BAAB"/>
<path d="M250.065 76.4508C250.081 76.4409 250.121 76.4971 250.218 76.5509C250.311 76.6031 250.476 76.6477 250.659 76.5955C251.028 76.4925 251.376 75.9469 251.441 75.3365C251.475 75.0278 251.434 74.7284 251.343 74.4758C251.259 74.2193 251.113 74.0328 250.935 73.9859C250.758 73.9297 250.622 74.0282 250.573 74.1203C250.519 74.2118 250.536 74.2813 250.517 74.2853C250.507 74.2934 250.449 74.2228 250.487 74.0843C250.507 74.0183 250.553 73.9413 250.637 73.8822C250.724 73.8226 250.847 73.7982 250.972 73.822C251.232 73.8608 251.448 74.1208 251.547 74.3977C251.661 74.6774 251.714 75.0145 251.676 75.3608C251.6 76.0436 251.199 76.6558 250.696 76.7583C250.452 76.8017 250.259 76.7137 250.162 76.6251C250.065 76.5336 250.053 76.456 250.065 76.4508Z" fill="#D78776"/>
<path d="M246.92 64.7713C247.71 63.953 248.592 63.6258 248.617 63.697C248.657 63.7758 247.878 64.2026 247.133 64.9775C246.925 65.1895 246.746 65.4008 246.59 65.5983C247.884 65.4402 249.314 65.4281 250.335 66.2342C251.204 66.92 251.588 68.0806 251.591 69.1879C251.594 70.2952 251.135 71.3452 250.811 72.4039C250.617 73.0213 250.412 73.2339 250.412 73.2339L249.927 76.0972L249.373 76.0862C248.333 74.0313 247.036 73.1093 247.696 69.5059C247.696 69.5059 248.442 67.5877 246.28 67.8078C244.119 68.0279 241.181 70.4655 236.972 69.851C236.29 69.7514 235.58 69.675 235.01 69.2881C234.44 68.9012 234.03 68.2254 234.11 67.5414C234.189 66.8574 234.86 66.2516 235.538 66.3767C235.538 66.3767 235.465 64.392 238.53 64.392C241.595 64.392 245.937 65.6325 245.937 65.6325L246.92 64.7713Z" fill="#263238"/>
<path d="M235.454 66.1911C235.208 65.4706 235.772 64.6992 236.447 64.3459C237.121 63.9926 237.903 63.9051 238.607 63.6179C240.294 62.9299 241.358 61.1843 243.019 60.436C244.487 59.7752 246.184 59.9907 247.77 60.2681C249.718 60.6086 251.879 61.1762 252.882 62.8806C253.073 63.2055 253.215 63.5797 253.163 63.9532C253.111 64.3262 252.815 64.6835 252.439 64.7021C252.176 64.7154 251.935 64.5712 251.687 64.4814C251.439 64.3916 251.119 64.3731 250.953 64.5781C250.668 64.9308 251.125 65.3855 251.471 65.6785C252.768 66.7754 252.86 69.0075 251.659 70.2075" fill="#6B88F3"/>
<path d="M248.276 60.4495C248.27 60.4952 247.566 60.1043 246.345 60.1796C245.742 60.2178 245.026 60.3829 244.323 60.7645C243.618 61.1456 242.972 61.7642 242.507 62.5727C242.255 62.9624 241.979 63.3487 241.604 63.6064C241.234 63.8647 240.824 64.0124 240.439 64.1335C239.664 64.3605 238.953 64.5406 238.469 64.9095C237.983 65.2663 237.777 65.7539 237.746 66.0823C237.711 66.4188 237.805 66.5983 237.788 66.6012C237.788 66.6012 237.678 66.4292 237.699 66.0783C237.718 65.736 237.918 65.2234 238.419 64.8418C238.913 64.4508 239.641 64.2586 240.406 64.0281C240.787 63.9059 241.184 63.7588 241.536 63.5109C241.89 63.2659 242.156 62.897 242.407 62.5078C242.872 61.697 243.549 61.0466 244.271 60.6678C244.993 60.2827 245.727 60.1234 246.341 60.0956C246.957 60.0632 247.453 60.1622 247.78 60.2613C248.109 60.3574 248.276 60.4495 248.276 60.4495Z" fill="#263238"/>
<path d="M247.831 60.3267C247.851 60.3499 247.212 60.3511 246.573 61.0177C246.255 61.3385 245.978 61.8071 245.735 62.3561C245.485 62.9011 245.26 63.5364 244.86 64.1237C244.66 64.4155 244.421 64.675 244.146 64.8702C243.869 65.0648 243.575 65.1928 243.311 65.3336C242.767 65.5913 242.403 66.0094 242.221 66.4211C241.852 67.2621 242.086 67.858 242.049 67.8488C242.049 67.8488 241.99 67.7167 241.965 67.459C241.941 67.2042 241.959 66.8162 242.143 66.3865C242.317 65.9579 242.704 65.5032 243.259 65.2357C243.526 65.0903 243.816 64.9605 244.077 64.774C244.339 64.5876 244.567 64.3385 244.761 64.0553C245.149 63.4866 245.377 62.8582 245.634 62.3103C245.885 61.7596 246.177 61.2807 246.513 60.9581C246.843 60.6309 247.189 60.456 247.437 60.3853C247.686 60.3129 247.831 60.3267 247.831 60.3267Z" fill="#263238"/>
<path d="M248.24 60.1641C248.24 60.1641 248.33 60.2666 248.443 60.4832C248.556 60.6986 248.689 61.0322 248.759 61.466C248.826 61.898 248.821 62.4349 248.646 62.9926C248.477 63.5567 248.089 64.0745 247.818 64.6646C247.532 65.256 247.544 65.8965 247.578 66.4623C247.614 67.0305 247.644 67.5581 247.555 67.9907C247.478 68.4245 247.307 68.7505 247.15 68.9388C246.991 69.1276 246.867 69.1907 246.867 69.1907C246.841 69.1838 247.347 68.8467 247.471 67.9756C247.547 67.5529 247.509 67.0409 247.467 66.4687C247.427 65.9046 247.41 65.2311 247.708 64.6148C247.989 64.0056 248.374 63.4982 248.54 62.9579C248.715 62.4216 248.729 61.9004 248.675 61.4776C248.557 60.6216 248.21 60.1751 248.24 60.1641Z" fill="#263238"/>
<path d="M248.82 60.686C248.82 60.686 248.969 60.6895 249.218 60.7856C249.463 60.8806 249.815 61.0741 250.114 61.4523C250.413 61.8235 250.625 62.4026 250.548 63.0397C250.504 63.6965 249.947 64.2409 249.897 64.9306C249.879 65.2746 250.036 65.5932 250.21 65.8746C250.384 66.1596 250.584 66.4225 250.718 66.7121C250.992 67.2889 251.015 67.8855 250.935 68.3517C250.855 68.8231 250.676 69.1746 250.531 69.3941C250.381 69.6131 250.269 69.7086 250.269 69.7086C250.234 69.6959 250.706 69.2685 250.851 68.3378C250.918 67.8837 250.885 67.3086 250.618 66.7602C250.488 66.4851 250.289 66.2268 250.109 65.9366C249.931 65.6511 249.758 65.3088 249.776 64.9254C249.794 64.5443 249.973 64.2194 250.121 63.9206C250.276 63.6212 250.402 63.3275 250.437 63.0252C250.517 62.4212 250.324 61.8663 250.046 61.5038C249.768 61.1337 249.434 60.9345 249.199 60.8285C248.963 60.7214 248.817 60.6976 248.82 60.686Z" fill="#263238"/>
<path d="M245.731 63.3522C245.737 63.2728 247.024 63.3232 248.552 63.7309C249.31 63.9458 249.994 64.1474 250.457 64.4364C250.929 64.7294 251.017 65.1087 250.977 65.1093C250.935 65.1313 250.797 64.8348 250.351 64.6211C249.915 64.4068 249.22 64.2319 248.475 64.0223C246.975 63.6215 245.722 63.4385 245.731 63.3522Z" fill="#263238"/>
<g opacity="0.3">
<path opacity="0.3" d="M259.882 137.452L228.737 139.344L229.819 116.135L230.423 110.471C227.727 114.041 222.884 119.07 217.086 118.868C207.171 118.521 192.633 101.787 192.633 101.787L199.193 97.2284C199.193 97.2284 214.956 107.825 217.048 107.957C219.435 108.108 226.94 97.8081 226.94 97.8081L226.941 97.8093C231.753 90.6306 237.974 89.5557 240.237 89.4115V88.515L251.36 87.78C251.36 87.78 251.327 88.7356 251.339 89.5708C257.21 89.7717 262.749 92.4219 266.508 96.9354C267.051 97.5869 267.613 98.2981 268.193 99.0736L259.794 106.151L258.274 122.225L259.882 137.452Z" fill="#FEC505"/>
</g>
<g opacity="0.3">
<path opacity="0.3" d="M265.431 95.96L277.482 109.542C281.025 113.836 280.334 119.541 277.517 124.343C273.231 131.649 265.278 140.069 265.348 140.003C265.461 139.895 260.314 133.715 260.314 133.715C260.314 133.715 269.773 119.332 268.575 116.602C267.378 113.873 258.545 104.965 258.545 104.965L265.431 95.96Z" fill="#FEC505"/>
</g>
<path d="M262.255 134.131C262.255 134.131 260.441 135.381 258.395 137.247C257.239 138.301 259.514 144.575 260.766 143.471C262.018 142.367 265.456 138.045 265.456 138.045L262.255 134.131Z" fill="#E5BAAB"/>
<path d="M260.587 143.579C260.587 143.579 264.148 143.183 264.05 142.449C263.952 141.715 263.17 140.833 263.17 140.833L260.587 143.579Z" fill="#D78776"/>
<path d="M243.244 118.645C243.246 118.101 243.358 117.563 243.57 117.062C243.783 116.561 244.094 116.109 244.483 115.729C244.874 115.349 245.336 115.052 245.843 114.852C246.349 114.653 246.891 114.557 247.435 114.569C247.933 114.571 248.427 114.658 248.895 114.826L243.626 110.521C243.519 110.433 243.385 110.386 243.247 110.386C243.109 110.386 242.975 110.433 242.868 110.521L236.282 115.902C236.162 116.003 236.086 116.148 236.072 116.304C236.057 116.461 236.105 116.616 236.205 116.738C236.304 116.859 236.448 116.937 236.604 116.954C236.76 116.97 236.917 116.925 237.04 116.828L237.856 116.157V122.94C237.856 123.098 237.919 123.25 238.031 123.362C238.143 123.475 238.296 123.537 238.454 123.537H246.09C245.155 122.627 243.244 120.537 243.244 118.645Z" fill="white"/>
<path fill-rule="evenodd" clip-rule="evenodd" d="M248.513 120.164C248.179 120.493 247.995 120.933 247.995 121.4C247.995 121.774 248.118 122.126 248.334 122.422C247.921 122.907 247.597 123.237 247.559 123.275C247.496 123.339 247.409 123.375 247.319 123.375C247.229 123.375 247.142 123.339 247.079 123.275C246.964 123.16 244.275 120.432 244.275 118.645C244.275 116.741 245.823 115.604 247.319 115.604C248.815 115.604 250.362 116.741 250.362 118.645C250.362 118.972 250.271 119.331 250.123 119.7C250.056 119.685 249.989 119.673 249.921 119.667C249.863 119.661 249.806 119.658 249.748 119.658C249.282 119.658 248.843 119.838 248.513 120.164ZM246.304 118.645C246.304 119.204 246.759 119.658 247.319 119.658C247.879 119.658 248.334 119.204 248.334 118.645C248.334 118.085 247.879 117.631 247.319 117.631C246.759 117.631 246.304 118.085 246.304 118.645Z" fill="white"/>
<path d="M251.731 120.645C251.503 120.417 251.188 120.305 250.867 120.337C250.683 120.356 250.509 120.421 250.362 120.524C250.214 120.421 250.041 120.356 249.857 120.337C249.536 120.306 249.221 120.417 248.993 120.645C248.79 120.849 248.678 121.12 248.678 121.407C248.678 121.695 248.79 121.966 248.993 122.17L250.362 123.538L251.731 122.17C251.935 121.966 252.047 121.695 252.047 121.407C252.047 121.12 251.935 120.849 251.731 120.645Z" fill="white"/>
<path d="M259.882 137.452L228.737 139.344L229.819 116.135L230.423 110.471C227.727 114.041 222.884 119.07 217.086 118.868C207.171 118.521 192.633 101.787 192.633 101.787L199.193 97.2284C199.193 97.2284 214.956 107.825 217.048 107.957C219.435 108.108 226.94 97.8081 226.94 97.8081L226.941 97.8093C231.753 90.6306 237.974 89.5557 240.237 89.4115V88.515L251.36 87.78C251.36 87.78 251.327 88.7356 251.339 89.5708C257.21 89.7717 262.749 92.4219 266.508 96.9354C267.051 97.5869 267.613 98.2981 268.193 99.0736L259.794 106.151L258.274 122.225L259.882 137.452Z" fill="#F29971"/>
<path d="M265.431 95.96L277.482 109.542C281.025 113.836 280.334 119.541 277.517 124.343C273.231 131.649 265.278 140.069 265.348 140.003C265.461 139.895 260.314 133.715 260.314 133.715C260.314 133.715 269.773 119.332 268.575 116.602C267.378 113.873 258.545 104.965 258.545 104.965L265.431 95.96Z" fill="#F29971"/>
<path d="M168.319 242.982L85.8788 242.603C75.9624 242.558 67.9633 234.484 68.0001 224.569L68.877 17.8861C68.9213 7.96264 76.9954 -0.044381 86.9186 0.000185138L169.358 0.378996C179.275 0.423562 187.274 8.49743 187.237 18.4134L186.36 225.096C186.323 235.019 178.242 243.027 168.319 242.982Z" fill="#574EAE"/>
<path d="M169.24 7.5165L153.255 7.44224C151.109 7.43481 149.363 9.23972 149.356 11.4829L149.341 14.3797C149.333 16.6229 147.588 18.4278 145.441 18.4203L114.282 18.2792C112.135 18.2718 110.412 16.4446 110.42 14.2014L110.435 11.3046C110.442 9.06147 108.712 7.24165 106.572 7.22679L100.95 7.19709L86.9629 7.13024C80.0185 7.10054 74.3585 12.7084 74.3285 19.6533L73.4741 221.389C73.4448 228.334 79.0449 233.987 85.9899 234.016L168.267 234.395C175.211 234.425 180.871 228.817 180.901 221.872L181.756 20.1361C181.792 13.1987 176.185 7.54621 169.24 7.5165Z" fill="white"/>
<path fill-rule="evenodd" clip-rule="evenodd" d="M168 122C168 144.091 150.091 162 128 162C105.909 162 88 144.091 88 122C88 99.9081 105.909 82 128 82C150.091 82 168 99.9081 168 122Z" stroke="#CACACA" stroke-linecap="round" stroke-dasharray="7.85 7.85"/>
<path fill-rule="evenodd" clip-rule="evenodd" d="M123 120.25C123 117.355 125.355 115 128.25 115C131.145 115 133.5 117.355 133.5 120.25C133.5 124.123 128.656 128.726 128.45 128.921C128.393 128.973 128.322 129 128.25 129C128.178 129 128.107 128.973 128.05 128.921C127.844 128.726 123 124.123 123 120.25ZM125.333 120.25C125.333 121.858 126.642 123.167 128.25 123.167C129.858 123.167 131.167 121.858 131.167 120.25C131.167 118.642 129.858 117.333 128.25 117.333C126.642 117.333 125.333 118.642 125.333 120.25Z" fill="#574EAE"/>
<path d="M161 157C167.627 157 173 151.627 173 145C173 138.373 167.627 133 161 133C154.373 133 149 138.373 149 145C149 151.627 154.373 157 161 157Z" fill="#F76984"/>
<path d="M160.23 140.538C160.23 139.136 159.284 138 158.115 138C156.947 138 156 139.136 156 140.538C156 141.749 156.707 142.757 157.652 143.011L156.855 150.125C156.849 150.171 156.846 150.22 156.846 150.268C156.846 150.968 157.415 151.537 158.115 151.537C158.816 151.537 159.384 150.968 159.384 150.268C159.384 150.227 159.383 150.187 159.378 150.147L158.7 142.966C159.581 142.66 160.23 141.695 160.23 140.538Z" fill="white"/>
<path d="M165.73 138C165.496 138 165.307 138.19 165.307 138.423V140.538C165.307 140.772 165.117 140.961 164.884 140.961C164.65 140.961 164.461 140.772 164.461 140.538V138.423C164.461 138.19 164.271 138 164.038 138C163.804 138 163.615 138.19 163.615 138.423V140.538C163.615 140.772 163.425 140.961 163.192 140.961C162.958 140.961 162.769 140.772 162.769 140.538V138.423C162.769 138.19 162.579 138 162.345 138C162.112 138 161.922 138.19 161.922 138.423V140.961C161.922 141.967 162.63 142.809 163.573 143.021L162.776 150.125C162.771 150.171 162.769 150.22 162.769 150.268C162.769 150.968 163.337 151.537 164.038 151.537C164.738 151.537 165.307 150.968 165.307 150.268C165.307 150.227 165.305 150.187 165.301 150.147L164.624 142.983C165.504 142.727 166.153 141.922 166.153 140.961V138.423C166.153 138.19 165.963 138 165.73 138Z" fill="white"/>
<path d="M96 157C102.627 157 108 151.627 108 145C108 138.373 102.627 133 96 133C89.3726 133 84 138.373 84 145C84 151.627 89.3726 157 96 157Z" fill="#6B88F3"/>
<path d="M90.3516 144.946V143.324C90.5008 143.324 90.6216 143.202 90.6216 143.053C90.6216 142.904 90.5008 142.783 90.3516 142.783C89.6057 142.783 89 143.39 89 144.135V144.675C89 145.122 89.3641 145.486 89.8108 145.486H90.3516C90.5008 145.486 90.6216 145.365 90.6216 145.216C90.6216 145.066 90.5008 144.946 90.3516 144.946Z" fill="white"/>
<path d="M100.621 142.783C100.472 142.783 100.351 142.904 100.351 143.053C100.351 143.202 100.472 143.324 100.621 143.324V144.946C100.472 144.946 100.351 145.066 100.351 145.216C100.351 145.365 100.472 145.486 100.621 145.486H101.162C101.609 145.486 101.973 145.122 101.973 144.675V144.135C101.973 143.39 101.367 142.783 100.621 142.783Z" fill="white"/>
<path d="M93.5949 150.351C93.4457 150.351 93.3241 150.472 93.3241 150.621H91.7024C91.7024 150.472 91.5816 150.351 91.4324 150.351C91.2832 150.351 91.1624 150.472 91.1624 150.621V151.162C91.1624 151.609 91.5257 151.973 91.9732 151.973H93.0541C93.5008 151.973 93.8649 151.609 93.8649 151.162V150.621C93.8649 150.472 93.7441 150.351 93.5949 150.351Z" fill="white"/>
<path d="M99.5405 150.351C99.3914 150.351 99.2705 150.472 99.2705 150.621H97.6489C97.6489 150.472 97.5273 150.351 97.3781 150.351C97.2289 150.351 97.1081 150.472 97.1081 150.621V151.162C97.1081 151.609 97.4722 151.973 97.9189 151.973H98.9997C99.4473 151.973 99.8105 151.609 99.8105 151.162V150.621C99.8105 150.472 99.6897 150.351 99.5405 150.351Z" fill="white"/>
<path fill-rule="evenodd" clip-rule="evenodd" d="M99.5405 139H91.4324C90.6873 139 90.0808 139.606 90.0808 140.352V149.541C90.0808 150.286 90.6873 150.892 91.4324 150.892H99.5405C100.286 150.892 100.892 150.286 100.892 149.541V140.352C100.892 139.606 100.286 139 99.5405 139ZM92.5132 140.081H98.4597C98.9065 140.081 99.2705 140.445 99.2705 140.892C99.2705 141.339 98.9065 141.702 98.4597 141.702H92.5132C92.0665 141.702 91.7024 141.339 91.7024 140.892C91.7024 140.445 92.0665 140.081 92.5132 140.081ZM91.7024 148.46C91.7024 148.906 92.0665 149.271 92.5132 149.271C92.9608 149.271 93.3241 148.906 93.3241 148.46C93.3241 148.012 92.9608 147.649 92.5132 147.649C92.0665 147.649 91.7024 148.012 91.7024 148.46ZM98.4597 149.271C98.0122 149.271 97.6489 148.906 97.6489 148.46C97.6489 148.012 98.0122 147.649 98.4597 147.649C98.9065 147.649 99.2705 148.012 99.2705 148.46C99.2705 148.906 98.9065 149.271 98.4597 149.271ZM98.9997 146.567C99.4473 146.567 99.8105 146.204 99.8105 145.756V143.054C99.8105 142.607 99.4473 142.243 98.9997 142.243H91.9732C91.5257 142.243 91.1624 142.607 91.1624 143.054V145.756C91.1624 146.204 91.5257 146.567 91.9732 146.567H98.9997Z" fill="white"/>
<path d="M128 94C134.627 94 140 88.6274 140 82C140 75.3726 134.627 70 128 70C121.373 70 116 75.3726 116 82C116 88.6274 121.373 94 128 94Z" fill="#F29971"/>
<path d="M127.486 81.4239C127.889 81.4239 128.271 81.3757 128.563 81.2881L133.303 79.8664C133.857 79.7002 133.973 79.4187 133.973 79.2119C133.973 79.0051 133.857 78.7237 133.303 78.5576L128.563 77.1358C128.271 77.0482 127.889 77 127.486 77C127.084 77 126.702 77.0482 126.41 77.1358L121.671 78.5576C121.116 78.7237 121 79.0051 121 79.2119C121 79.4187 121.116 79.7002 121.67 79.8663L126.41 81.2881C126.702 81.3757 127.084 81.4239 127.486 81.4239Z" fill="white"/>
<path d="M127.486 82.1843C127.005 82.1843 126.557 82.1263 126.191 82.0164L123.443 81.1919V82.2653C123.443 82.6211 123.674 83.1223 124.776 83.4895C125.506 83.7328 126.468 83.8668 127.486 83.8668C128.505 83.8668 129.467 83.7328 130.197 83.4895C131.299 83.1223 131.53 82.6211 131.53 82.2653V81.1919L128.782 82.0164C128.416 82.1263 127.968 82.1843 127.486 82.1843Z" fill="white"/>
<path d="M133.159 83.3803V80.7034L132.398 80.9314V83.3803C131.926 83.5394 131.584 83.9865 131.584 84.5122V86.1406C131.584 86.799 132.12 87.3348 132.779 87.3348C133.437 87.3348 133.973 86.799 133.973 86.1406V84.5122C133.973 83.9865 133.632 83.5394 133.159 83.3803Z" fill="white"/>
<path d="M244 116.878C244.005 115.653 244.503 114.482 245.38 113.627C246.258 112.772 247.442 112.306 248.667 112.333C249.221 112.336 249.771 112.433 250.292 112.62L244.425 107.82C244.18 107.619 243.827 107.619 243.581 107.82L236.248 113.82C235.97 114.055 235.931 114.47 236.162 114.752C236.392 115.034 236.807 115.078 237.092 114.852L238 114.104V121.667C238 122.035 238.298 122.333 238.667 122.333H247.169C246.127 121.319 244 118.987 244 116.878Z" fill="white"/>
<path fill-rule="evenodd" clip-rule="evenodd" d="M246.327 114.574C246.954 113.97 247.797 113.643 248.667 113.667C249.537 113.643 250.38 113.97 251.006 114.574C251.633 115.178 251.991 116.008 252 116.878C252 118.689 249.421 121.2 249.127 121.483L248.667 121.922L248.207 121.483C247.913 121.202 245.333 118.689 245.333 116.878C245.342 116.008 245.7 115.178 246.327 114.574ZM247.333 117C247.333 117.736 247.93 118.333 248.667 118.333C249.403 118.333 250 117.736 250 117C250 116.264 249.403 115.667 248.667 115.667C247.93 115.667 247.333 116.264 247.333 117Z" fill="white"/>
<ellipse cx="128.5" cy="82" rx="9.5" ry="9" fill="#F29971"/>
<g clip-path="url(#clip0_395_1151)">
<path d="M133.305 85.495L128.765 80.955C129.23 79.785 128.99 78.405 128.045 77.455C126.895 76.305 125.105 76.2 123.83 77.13L125.75 79.055L125.04 79.76L123.125 77.845C122.195 79.115 122.3 80.91 123.45 82.055C124.38 82.985 125.735 83.23 126.895 82.795L131.45 87.35C131.645 87.545 131.96 87.545 132.155 87.35L133.305 86.2C133.505 86.01 133.505 85.695 133.305 85.495ZM131.805 86.295L127.075 81.565C126.77 81.79 126.43 81.925 126.075 81.975C125.395 82.075 124.68 81.87 124.16 81.35C123.685 80.88 123.465 80.25 123.5 79.63L125.045 81.175L127.165 79.055L125.62 77.51C126.24 77.475 126.865 77.695 127.34 78.165C127.88 78.705 128.085 79.45 127.96 80.145C127.9 80.5 127.75 80.83 127.52 81.125L132.245 85.85L131.805 86.295Z" fill="white"/>
</g>
<ellipse cx="162" cy="144.5" rx="11" ry="10.5" fill="#F76984"/>
<g clip-path="url(#clip1_395_1151)">
<path d="M157 145.5C157.55 145.5 158 145.05 158 144.5C158 143.95 157.55 143.5 157 143.5C156.45 143.5 156 143.95 156 144.5C156 145.05 156.45 145.5 157 145.5ZM157.565 146.05C157.38 146.02 157.195 146 157 146C156.505 146 156.035 146.105 155.61 146.29C155.24 146.45 155 146.81 155 147.215V148H157.25V147.195C157.25 146.78 157.365 146.39 157.565 146.05ZM165 145.5C165.55 145.5 166 145.05 166 144.5C166 143.95 165.55 143.5 165 143.5C164.45 143.5 164 143.95 164 144.5C164 145.05 164.45 145.5 165 145.5ZM167 147.215C167 146.81 166.76 146.45 166.39 146.29C165.965 146.105 165.495 146 165 146C164.805 146 164.62 146.02 164.435 146.05C164.635 146.39 164.75 146.78 164.75 147.195V148H167V147.215ZM163.12 145.825C162.535 145.565 161.815 145.375 161 145.375C160.185 145.375 159.465 145.57 158.88 145.825C158.34 146.065 158 146.605 158 147.195V148H164V147.195C164 146.605 163.66 146.065 163.12 145.825ZM159.035 147C159.08 146.885 159.1 146.805 159.49 146.655C159.975 146.465 160.485 146.375 161 146.375C161.515 146.375 162.025 146.465 162.51 146.655C162.895 146.805 162.915 146.885 162.965 147H159.035ZM161 143C161.275 143 161.5 143.225 161.5 143.5C161.5 143.775 161.275 144 161 144C160.725 144 160.5 143.775 160.5 143.5C160.5 143.225 160.725 143 161 143ZM161 142C160.17 142 159.5 142.67 159.5 143.5C159.5 144.33 160.17 145 161 145C161.83 145 162.5 144.33 162.5 143.5C162.5 142.67 161.83 142 161 142Z" fill="white"/>
</g>
<ellipse cx="95.5" cy="146" rx="8.5" ry="9" fill="#6B88F3"/>
<g clip-path="url(#clip2_395_1151)">
<path d="M96 139.5L92 142.5V148.5H94.5V145H97.5V148.5H100V142.5L96 139.5Z" fill="white"/>
</g>
<rect x="233" y="100" width="22" height="27" fill="#F29971"/>
<defs>
<clipPath id="clip0_395_1151">
<rect width="12" height="12" fill="white" transform="translate(122 76)"/>
</clipPath>
<clipPath id="clip1_395_1151">
<rect width="12" height="12" fill="white" transform="translate(155 139)"/>
</clipPath>
<clipPath id="clip2_395_1151">
<rect width="12" height="12" fill="white" transform="translate(90 138)"/>
</clipPath>
</defs>
</svg>
