<svg width="116" height="30" viewBox="0 0 116 30" fill="none" xmlns="http://www.w3.org/2000/svg">
<path fill-rule="evenodd" clip-rule="evenodd" d="M7 0H0L7.5 29.5H14.5L32 0H25L12.4 21.24L7 0ZM45.5 0L28.5 29.5H35.5L38.9576 23.5H51.4746L53 29.5H60L52.5 0H45.5ZM49.9491 17.5L47.6429 8.42858L42.4153 17.5H49.9491ZM74 0H86L85 6H72.9831L72.1356 11H82.5L81.5 17H71.1187L70.017 23.5H82L81 29.5L69 29.5H62.5L67.5 0H70.5H74ZM84 29.5L101 0H108L115.5 29.5H108.5L106.975 23.5H94.4576L91 29.5H84ZM103.143 8.42858L105.449 17.5H97.9153L103.143 8.42858Z" fill="url(#paint0_linear_43_2345)"/>
<defs>
<linearGradient id="paint0_linear_43_2345" x1="-0.500001" y1="12" x2="115.5" y2="12" gradientUnits="userSpaceOnUse">
<stop stop-color="#F492A1"/>
<stop offset="1" stop-color="#BF90F0"/>
</linearGradient>
</defs>
</svg>
